<?xml version="1.0" encoding="utf-8"?>
<!-- Generator: Adobe Illustrator 16.0.0, SVG Export Plug-In . SVG Version: 6.00 Build 0)  -->
<!DOCTYPE svg PUBLIC "-//W3C//DTD SVG 1.1//EN" "http://www.w3.org/Graphics/SVG/1.1/DTD/svg11.dtd">
<svg version="1.1" xmlns="http://www.w3.org/2000/svg" xmlns:xlink="http://www.w3.org/1999/xlink" x="0px" y="0px"
	 viewBox="0 0 593.965 742.457" enable-background="new 0 0 593.965 742.457"
	 xml:space="preserve">
<g id="Layer_1">
</g>
<g id="_x31__x5F_SHAPE">
	<path fill="none" stroke="#000000" stroke-width="0.15" d="M296.99,445.429H148.515c81.978,0,148.475-66.423,148.475-148.439
		V445.429z"/>
	<path fill="none" stroke="#000000" stroke-width="0.15" d="M445.504,593.942H296.99c82.017,0,148.515-66.461,148.515-148.514
		V593.942z"/>
	<path fill="none" stroke="#000000" stroke-width="0.15" d="M445.504,742.457H296.99c82.017,0,148.515-66.462,148.515-148.515
		V742.457z"/>
	<path fill="none" stroke="#000000" stroke-width="0.15" d="M148.515,742.457H0c82.016,0,148.515-66.462,148.515-148.515V742.457z"
		/>
	<path fill="none" stroke="#000000" stroke-width="0.15" d="M593.965,148.513H445.504c81.978,0,148.461-66.537,148.461-148.513
		V148.513z"/>
	<path fill="none" stroke="#000000" stroke-width="0.15" d="M593.965,296.989H445.504c81.978,0,148.461-66.498,148.461-148.476
		V296.989z"/>
	<path fill="none" stroke="#000000" stroke-width="0.15" d="M148.515,593.942H296.99c-82.016,0-148.475,66.498-148.475,148.515
		V593.942z"/>
	<path fill="none" stroke="#000000" stroke-width="0.15" d="M445.504,742.457c81.978,0,148.461-66.462,148.461-148.515H445.504
		V742.457z"/>
	<path fill="none" stroke="#000000" stroke-width="0.15" d="M0,296.989h148.515C66.499,296.989,0,363.45,0,445.429V296.989z"/>
	<path fill="none" stroke="#000000" stroke-width="0.15" d="M445.504,296.989c81.978,0,148.461,66.46,148.461,148.439H445.504
		V296.989z"/>
	<path fill="none" stroke="#000000" stroke-width="0.15" d="M0,445.429c82.016,0,148.515,66.535,148.515,148.514H0V445.429z"/>
	<path fill="none" stroke="#000000" stroke-width="0.15" d="M148.515,148.513c81.978,0,148.475,66.423,148.475,148.476H148.515
		V148.513z"/>
	<path fill="none" stroke="#000000" stroke-width="0.15" d="M148.515,0C230.493,0,296.99,66.459,296.99,148.513H148.515V0z"/>
	<path fill="none" stroke="#000000" stroke-width="0.15" d="M0,0c82.016,0,148.515,66.459,148.515,148.513H0V0z"/>
	<path fill="none" stroke="#000000" stroke-width="0.15" d="M445.504,445.429c-82.032,0-148.515-66.423-148.515-148.439h148.515
		V445.429z"/>
	<path fill="none" stroke="#000000" stroke-width="0.15" d="M148.515,445.429c81.978,0,148.475,66.535,148.475,148.514H148.515
		V445.429z"/>
	<path fill="none" stroke="#000000" stroke-width="0.15" d="M445.504,445.429c81.978,0,148.461,66.535,148.461,148.514H445.504
		V445.429z"/>
	<path fill="none" stroke="#000000" stroke-width="0.15" d="M296.99,148.513c82.017,0,148.515,66.423,148.515,148.476H296.99
		V148.513z"/>
	<path fill="none" stroke="#000000" stroke-width="0.15" d="M148.515,296.989C66.499,296.989,0,230.492,0,148.513h148.515V296.989z"
		/>
	<path fill="none" stroke="#000000" stroke-width="0.15" d="M297.013,0c-82.016,0-148.498,66.459-148.498,148.513h148.498V0z"/>
	<path fill="none" stroke="#000000" stroke-width="0.15" d="M148.515,593.942c-82.032,0-148.493,66.498-148.493,148.515h148.493
		V593.942z"/>
	<path fill="none" stroke="#000000" stroke-width="0.15" d="M593.979,296.989c-81.991,0-148.489,66.46-148.489,148.439h148.489
		V296.989z"/>
	<path fill="none" stroke="#000000" stroke-width="0.15" d="M297.013,742.457H445.49c-82.018,0-148.477-66.462-148.477-148.515
		V742.457z"/>
	<path fill="none" stroke="#000000" stroke-width="0.15" d="M0.022,148.513h148.493C66.483,148.513,0.022,81.977,0.022,0V148.513z"
		/>
	<path fill="none" stroke="#000000" stroke-width="0.15" d="M445.49,296.989h148.489c-81.991,0-148.489-66.498-148.489-148.476
		V296.989z"/>
	<path fill="none" stroke="#000000" stroke-width="0.15" d="M148.515,296.989H0.022c81.994,0,148.493-66.498,148.493-148.476
		V296.989z"/>
	<path fill="none" stroke="#000000" stroke-width="0.15" d="M445.49,296.989H297.013c81.993,0,148.477-66.498,148.477-148.476
		V296.989z"/>
	<path fill="none" stroke="#000000" stroke-width="0.15" d="M297.013,0H445.49c-82.018,0-148.477,66.459-148.477,148.513V0z"/>
	<path fill="none" stroke="#000000" stroke-width="0.15" d="M148.515,742.457c82,0,148.498-66.462,148.498-148.515H148.515V742.457z
		"/>
	<path fill="none" stroke="#000000" stroke-width="0.15" d="M0.022,593.942c81.994,0,148.493-66.461,148.493-148.514H0.022V593.942z
		"/>
	<path fill="none" stroke="#000000" stroke-width="0.15" d="M445.49,742.457c82.016,0,148.489-66.462,148.489-148.515H445.49
		V742.457z"/>
	<path fill="none" stroke="#000000" stroke-width="0.15" d="M148.515,445.429h148.498c-82.016,0-148.498,66.535-148.498,148.514
		V445.429z"/>
	<path fill="none" stroke="#000000" stroke-width="0.15" d="M445.49,445.429h148.489c-81.991,0-148.489,66.535-148.489,148.514
		V445.429z"/>
	<path fill="none" stroke="#000000" stroke-width="0.15" d="M148.515,148.513c82,0,148.498,66.423,148.498,148.476H148.515V148.513z
		"/>
	<path fill="none" stroke="#000000" stroke-width="0.15" d="M445.49,445.429c-82.018,0-148.477-66.423-148.477-148.439H445.49
		V445.429z"/>
	<path fill="none" stroke="#000000" stroke-width="0.15" d="M593.979,148.513C511.988,148.513,445.49,81.977,445.49,0h148.489
		V148.513z"/>
	<path fill="none" stroke="#000000" stroke-width="0.15" d="M297.013,445.429c-82,0-148.476,66.535-148.476,148.514h148.476V445.429
		z"/>
	<path fill="none" stroke="#000000" stroke-width="0.15" d="M148.538,445.429c-82.016,0-148.5,66.535-148.5,148.514h148.5V445.429z"
		/>
	<path fill="none" stroke="#000000" stroke-width="0.15" d="M445.504,593.942c-81.994,0-148.491,66.498-148.491,148.515h148.491
		V593.942z"/>
	<path fill="none" stroke="#000000" stroke-width="0.15" d="M594.002,593.942c-82.015,0-148.498,66.498-148.498,148.515h148.498
		V593.942z"/>
	<path fill="none" stroke="#000000" stroke-width="0.15" d="M445.504,445.429c-81.994,0-148.491,66.535-148.491,148.514h148.491
		V445.429z"/>
	<path fill="none" stroke="#000000" stroke-width="0.15" d="M445.504,148.513c-81.994,0-148.491,66.423-148.491,148.476h148.491
		V148.513z"/>
	<path fill="none" stroke="#000000" stroke-width="0.15" d="M594.002,148.513c-82.015,0-148.498,66.423-148.498,148.476h148.498
		V148.513z"/>
	<path fill="none" stroke="#000000" stroke-width="0.15" d="M594.002,0c-82.015,0-148.498,66.459-148.498,148.513h148.498V0z"/>
	<path fill="none" stroke="#000000" stroke-width="0.15" d="M445.504,593.942h148.498c-82.015,0-148.498-66.461-148.498-148.514
		V593.942z"/>
	<path fill="none" stroke="#000000" stroke-width="0.15" d="M297.013,445.429H148.538c81.993,0,148.476-66.423,148.476-148.439
		V445.429z"/>
	<path fill="none" stroke="#000000" stroke-width="0.15" d="M148.538,0h148.476c-82,0-148.476,66.459-148.476,148.513V0z"/>
	<path fill="none" stroke="#000000" stroke-width="0.15" d="M0.038,148.513h148.5c-82.016,0-148.5,66.423-148.5,148.476V148.513z"/>
	<path fill="none" stroke="#000000" stroke-width="0.15" d="M0.038,0h148.5C66.521,0,0.038,66.459,0.038,148.513V0z"/>
	<path fill="none" stroke="#000000" stroke-width="0.15" d="M297.013,296.989c82.015,0,148.491,66.46,148.491,148.439H297.013
		V296.989z"/>
	<path fill="none" stroke="#000000" stroke-width="0.15" d="M297.013,0c82.015,0,148.491,66.459,148.491,148.513H297.013V0z"/>
	<path fill="none" stroke="#000000" stroke-width="0.15" d="M445.504,296.989c82.001,0,148.498,66.46,148.498,148.439H445.504
		V296.989z"/>
	<path fill="none" stroke="#000000" stroke-width="0.15" d="M148.538,445.429c-82.016,0-148.5-66.423-148.5-148.439h148.5V445.429z"
		/>
	<path fill="none" stroke="#000000" stroke-width="0.15" d="M148.538,742.457c-82.016,0-148.5-66.462-148.5-148.515h148.5V742.457z"
		/>
	<path fill="none" stroke="#000000" stroke-width="0.15" d="M297.013,296.989c-82,0-148.476-66.498-148.476-148.476h148.476V296.989
		z"/>
	<path fill="none" stroke="#000000" stroke-width="0.15" d="M148.5,148.513h148.514C214.998,148.513,148.5,81.977,148.5,0V148.513z"
		/>
	<path fill="none" stroke="#000000" stroke-width="0.15" d="M445.49,593.942h148.489c-81.991,0-148.489-66.461-148.489-148.514
		V593.942z"/>
	<path fill="none" stroke="#000000" stroke-width="0.15" d="M445.49,296.989h148.489c-81.991,0-148.489-66.498-148.489-148.476
		V296.989z"/>
	<path fill="none" stroke="#000000" stroke-width="0.15" d="M148.5,593.942H0.038c81.979,0,148.462-66.461,148.462-148.514V593.942z
		"/>
	<path fill="none" stroke="#000000" stroke-width="0.15" d="M0.038,0H148.5C66.521,0,0.038,66.459,0.038,148.513V0z"/>
	<path fill="none" stroke="#000000" stroke-width="0.15" d="M148.5,593.942c82.031,0,148.514-66.461,148.514-148.514H148.5V593.942z
		"/>
	<path fill="none" stroke="#000000" stroke-width="0.15" d="M297.013,148.513C379.028,148.513,445.49,81.977,445.49,0H297.013
		V148.513z"/>
	<path fill="none" stroke="#000000" stroke-width="0.15" d="M148.5,593.942h148.514c-82.016,0-148.514,66.498-148.514,148.515
		V593.942z"/>
	<path fill="none" stroke="#000000" stroke-width="0.15" d="M0.038,593.942H148.5c-81.978,0-148.462,66.498-148.462,148.515V593.942
		z"/>
	<path fill="none" stroke="#000000" stroke-width="0.15" d="M0.038,148.513H148.5c-81.978,0-148.462,66.423-148.462,148.476V148.513
		z"/>
	<path fill="none" stroke="#000000" stroke-width="0.15" d="M445.49,296.989h148.489c-81.991,0-148.489,66.46-148.489,148.439
		V296.989z"/>
	<path fill="none" stroke="#000000" stroke-width="0.15" d="M297.013,593.942c82.015,0,148.477,66.498,148.477,148.515H297.013
		V593.942z"/>
	<path fill="none" stroke="#000000" stroke-width="0.15" d="M297.013,445.429c82.015,0,148.477,66.535,148.477,148.514H297.013
		V445.429z"/>
	<path fill="none" stroke="#000000" stroke-width="0.15" d="M297.013,445.429c-82.016,0-148.514-66.423-148.514-148.439h148.514
		V445.429z"/>
	<path fill="none" stroke="#000000" stroke-width="0.15" d="M148.5,148.513c82.031,0,148.514,66.423,148.514,148.476H148.5V148.513z
		"/>
	<path fill="none" stroke="#000000" stroke-width="0.15" d="M148.5,445.429c-81.978,0-148.462-66.423-148.462-148.439H148.5V445.429
		z"/>
	<path fill="none" stroke="#000000" stroke-width="0.15" d="M445.49,445.429c-82.018,0-148.477-66.423-148.477-148.439H445.49
		V445.429z"/>
	<path fill="none" stroke="#000000" stroke-width="0.15" d="M593.979,742.457c-81.991,0-148.489-66.462-148.489-148.515h148.489
		V742.457z"/>
	<path fill="none" stroke="#000000" stroke-width="0.15" d="M297.013,148.513c82.015,0,148.477,66.423,148.477,148.476H297.013
		V148.513z"/>
	<path fill="none" stroke="#000000" stroke-width="0.15" d="M593.979,148.513C511.988,148.513,445.49,81.977,445.49,0h148.489
		V148.513z"/>
</g>
</svg>
