<?xml version="1.0" encoding="utf-8"?>
<!-- Generator: Adobe Illustrator 16.0.0, SVG Export Plug-In . SVG Version: 6.00 Build 0)  -->
<!DOCTYPE svg PUBLIC "-//W3C//DTD SVG 1.1//EN" "http://www.w3.org/Graphics/SVG/1.1/DTD/svg11.dtd">
<svg version="1.1" xmlns="http://www.w3.org/2000/svg" xmlns:xlink="http://www.w3.org/1999/xlink" x="0px" y="0px"
	 viewBox="0 0 593.998 742.456" enable-background="new 0 0 593.998 742.456"
	 xml:space="preserve">
<g id="Layer_1">
</g>
<g id="_x31__x5F_SHAPE">
	<path fill="none" stroke="#000000" stroke-width="0.15" d="M296.999,593.96c-81.98,0-148.48,66.463-148.48,148.518h148.48V593.96z"
		/>
	<path fill="none" stroke="#000000" stroke-width="0.15" d="M445.517,0c-82.055,0-148.518,66.462-148.518,148.48h148.518V0z"/>
	<path fill="none" stroke="#000000" stroke-width="0.15" d="M148.519,445.479C66.5,445.479,0,511.979,0,593.96h148.519V445.479z"/>
	<path fill="none" stroke="#000000" stroke-width="0.15" d="M593.96,0c-81.98,0-148.443,66.462-148.443,148.48H593.96V0z"/>
	<path fill="none" stroke="#000000" stroke-width="0.15" d="M296.999,593.96h148.518c-82.055,0-148.518-66.463-148.518-148.48
		V593.96z"/>
	<path fill="none" stroke="#000000" stroke-width="0.15" d="M296.999,296.961h-148.48c81.98,0,148.48-66.463,148.48-148.48V296.961z
		"/>
	<path fill="none" stroke="#000000" stroke-width="0.15" d="M296.999,148.48h-148.48c81.98,0,148.48-66.463,148.48-148.48V148.48z"
		/>
	<path fill="none" stroke="#000000" stroke-width="0.15" d="M296.999,445.479h-148.48c81.98,0,148.48-66.463,148.48-148.519V445.479
		z"/>
	<path fill="none" stroke="#000000" stroke-width="0.15" d="M0,148.48h148.519C66.5,148.48,0,214.98,0,296.961V148.48z"/>
	<path fill="none" stroke="#000000" stroke-width="0.15" d="M445.517,296.961c81.981,0,148.443-66.463,148.443-148.48H445.517
		V296.961z"/>
	<path fill="none" stroke="#000000" stroke-width="0.15" d="M296.999,148.48h148.518c-82.055,0-148.518,66.5-148.518,148.48V148.48z
		"/>
	<path fill="none" stroke="#000000" stroke-width="0.15" d="M148.519,445.479h148.48c-81.98,0-148.48,66.5-148.48,148.48V445.479z"
		/>
	<path fill="none" stroke="#000000" stroke-width="0.15" d="M0,0h148.519C66.5,0,0,66.462,0,148.48V0z"/>
	<path fill="none" stroke="#000000" stroke-width="0.15" d="M445.517,593.96c81.981,0,148.443,66.463,148.443,148.518H445.517
		V593.96z"/>
	<path fill="none" stroke="#000000" stroke-width="0.15" d="M0,296.961c82.019,0,148.519,66.5,148.519,148.519H0V296.961z"/>
	<path fill="none" stroke="#000000" stroke-width="0.15" d="M296.999,296.961c82.019,0,148.518,66.5,148.518,148.519H296.999
		V296.961z"/>
	<path fill="none" stroke="#000000" stroke-width="0.15" d="M296.999,593.96c82.019,0,148.518,66.463,148.518,148.518H296.999
		V593.96z"/>
	<path fill="none" stroke="#000000" stroke-width="0.15" d="M445.517,445.479c81.981,0,148.443,66.5,148.443,148.48H445.517V445.479
		z"/>
	<path fill="none" stroke="#000000" stroke-width="0.15" d="M148.519,593.997h148.442c-81.98,0-148.442-66.537-148.442-148.518
		V593.997z"/>
	<path fill="none" stroke="#000000" stroke-width="0.15" d="M445.479,296.961H296.961c82.057,0,148.519-66.463,148.519-148.519
		V296.961z"/>
	<path fill="none" stroke="#000000" stroke-width="0.15" d="M445.479,148.442H296.961c82.057,0,148.519-66.425,148.519-148.442
		V148.442z"/>
	<path fill="none" stroke="#000000" stroke-width="0.15" d="M148.519,296.961H0c82.019,0,148.519-66.463,148.519-148.519V296.961z"
		/>
	<path fill="none" stroke="#000000" stroke-width="0.15" d="M148.519,445.479H0c82.019,0,148.519-66.463,148.519-148.519V445.479z"
		/>
	<path fill="none" stroke="#000000" stroke-width="0.15" d="M593.96,148.442h-148.48c81.98,0,148.48-66.425,148.48-148.442V148.442z
		"/>
	<path fill="none" stroke="#000000" stroke-width="0.15" d="M445.479,445.479h148.48c-81.98,0-148.48,66.463-148.48,148.518V445.479
		z"/>
	<path fill="none" stroke="#000000" stroke-width="0.15" d="M445.479,148.442h148.48c-81.98,0-148.48,66.538-148.48,148.519V148.442
		z"/>
	<path fill="none" stroke="#000000" stroke-width="0.15" d="M0,742.44c82.019,0,148.519-66.463,148.519-148.443H0V742.44z"/>
	<path fill="none" stroke="#000000" stroke-width="0.15" d="M148.519,445.479c81.98,0,148.442-66.463,148.442-148.519H148.519
		V445.479z"/>
	<path fill="none" stroke="#000000" stroke-width="0.15" d="M296.961,593.997h148.519c-82.018,0-148.519,66.426-148.519,148.443
		V593.997z"/>
	<path fill="none" stroke="#000000" stroke-width="0.15" d="M445.479,296.961h148.48c-81.98,0-148.48,66.5-148.48,148.519V296.961z"
		/>
	<path fill="none" stroke="#000000" stroke-width="0.15" d="M445.479,593.997c81.98,0,148.48,66.426,148.48,148.443h-148.48V593.997
		z"/>
	<path fill="none" stroke="#000000" stroke-width="0.15" d="M296.961,296.961c82.057,0,148.519,66.5,148.519,148.519H296.961
		V296.961z"/>
	<path fill="none" stroke="#000000" stroke-width="0.15" d="M148.519,0c81.98,0,148.442,66.462,148.442,148.442H148.519V0z"/>
	<path fill="none" stroke="#000000" stroke-width="0.15" d="M0,445.479c82.019,0,148.519,66.463,148.519,148.518H0V445.479z"/>
	<path fill="none" stroke="#000000" stroke-width="0.15" d="M148.519,593.997c81.98,0,148.442,66.426,148.442,148.443H148.519
		V593.997z"/>
	<path fill="none" stroke="#000000" stroke-width="0.15" d="M148.519,148.442C66.462,148.442,0,82.018,0,0h148.519V148.442z"/>
	<path fill="none" stroke="#000000" stroke-width="0.15" d="M148.519,148.442c81.98,0,148.442,66.538,148.442,148.519H148.519
		V148.442z"/>
	<path fill="none" stroke="#000000" stroke-width="0.15" d="M593.998,445.479c-82.057,0-148.519,66.463-148.519,148.518h148.519
		V445.479z"/>
	<path fill="none" stroke="#000000" stroke-width="0.15" d="M148.48,593.997C66.462,593.997,0,660.423,0,742.44h148.48V593.997z"/>
	<path fill="none" stroke="#000000" stroke-width="0.15" d="M296.999,0C214.981,0,148.48,66.462,148.48,148.442h148.519V0z"/>
	<path fill="none" stroke="#000000" stroke-width="0.15" d="M0,445.479h148.48C66.462,445.479,0,379.017,0,296.961V445.479z"/>
	<path fill="none" stroke="#000000" stroke-width="0.15" d="M445.479,593.997h-148.48c81.98,0,148.48-66.537,148.48-148.518V593.997
		z"/>
	<path fill="none" stroke="#000000" stroke-width="0.15" d="M593.998,445.479H445.479c82.019,0,148.519-66.463,148.519-148.519
		V445.479z"/>
	<path fill="none" stroke="#000000" stroke-width="0.15" d="M445.479,742.44c82.019,0,148.519-66.463,148.519-148.443H445.479
		V742.44z"/>
	<path fill="none" stroke="#000000" stroke-width="0.15" d="M148.48,445.479c82.018,0,148.519-66.463,148.519-148.519H148.48
		V445.479z"/>
	<path fill="none" stroke="#000000" stroke-width="0.15" d="M296.999,593.997h148.48c-82.018,0-148.48,66.426-148.48,148.443
		V593.997z"/>
	<path fill="none" stroke="#000000" stroke-width="0.15" d="M296.999,296.961h148.48c-82.018,0-148.48,66.5-148.48,148.519V296.961z
		"/>
	<path fill="none" stroke="#000000" stroke-width="0.15" d="M148.48,148.442h148.519c-82.018,0-148.519,66.538-148.519,148.519
		V148.442z"/>
	<path fill="none" stroke="#000000" stroke-width="0.15" d="M148.48,445.479c82.018,0,148.519,66.463,148.519,148.518H148.48
		V445.479z"/>
	<path fill="none" stroke="#000000" stroke-width="0.15" d="M0,445.479c82.019,0,148.48,66.463,148.48,148.518H0V445.479z"/>
	<path fill="none" stroke="#000000" stroke-width="0.15" d="M148.48,593.997c82.018,0,148.519,66.426,148.519,148.443H148.48
		V593.997z"/>
	<path fill="none" stroke="#000000" stroke-width="0.15" d="M148.48,148.442C66.462,148.442,0,82.018,0,0h148.48V148.442z"/>
	<path fill="none" stroke="#000000" stroke-width="0.15" d="M445.479,0c82.019,0,148.519,66.462,148.519,148.442H445.479V0z"/>
	<path fill="none" stroke="#000000" stroke-width="0.15" d="M445.479,148.442c-82.018,0-148.48-66.425-148.48-148.442h148.48
		V148.442z"/>
	<path fill="none" stroke="#000000" stroke-width="0.15" d="M445.479,296.961c-82.018,0-148.48-66.463-148.48-148.519h148.48
		V296.961z"/>
	<path fill="none" stroke="#000000" stroke-width="0.15" d="M445.479,148.442c82.019,0,148.519,66.538,148.519,148.519H445.479
		V148.442z"/>
	<path fill="none" stroke="#000000" stroke-width="0.15" d="M593.998,594.013c-82.019,0-148.519,66.424-148.519,148.443h148.519
		V594.013z"/>
	<path fill="none" stroke="#000000" stroke-width="0.15" d="M148.519,296.977C66.5,296.977,0,363.476,0,445.495h148.519V296.977z"/>
	<path fill="none" stroke="#000000" stroke-width="0.15" d="M296.999,296.977c-82.018,0-148.48,66.5-148.48,148.519h148.48V296.977z
		"/>
	<path fill="none" stroke="#000000" stroke-width="0.15" d="M148.519,148.442C66.5,148.442,0,214.98,0,296.977h148.519V148.442z"/>
	<path fill="none" stroke="#000000" stroke-width="0.15" d="M445.479,594.013h148.519c-82.019,0-148.519-66.537-148.519-148.518
		V594.013z"/>
	<path fill="none" stroke="#000000" stroke-width="0.15" d="M148.519,742.456h148.48c-82.018,0-148.48-66.463-148.48-148.443
		V742.456z"/>
	<path fill="none" stroke="#000000" stroke-width="0.15" d="M148.519,296.977h148.48c-82.018,0-148.48-66.479-148.48-148.534
		V296.977z"/>
	<path fill="none" stroke="#000000" stroke-width="0.15" d="M148.519,594.013H0c82.019,0,148.519-66.537,148.519-148.518V594.013z"
		/>
	<path fill="none" stroke="#000000" stroke-width="0.15" d="M593.998,296.977H445.479c82.019,0,148.519-66.479,148.519-148.534
		V296.977z"/>
	<path fill="none" stroke="#000000" stroke-width="0.15" d="M296.999,742.456c82.019,0,148.48-66.463,148.48-148.443h-148.48
		V742.456z"/>
	<path fill="none" stroke="#000000" stroke-width="0.15" d="M296.999,445.495c82.019,0,148.48-66.463,148.48-148.519h-148.48
		V445.495z"/>
	<path fill="none" stroke="#000000" stroke-width="0.15" d="M148.519,445.495h148.48c-82.018,0-148.48,66.463-148.48,148.518
		V445.495z"/>
	<path fill="none" stroke="#000000" stroke-width="0.15" d="M296.999,148.442h148.48c-81.98,0-148.48,66.538-148.48,148.534V148.442
		z"/>
	<path fill="none" stroke="#000000" stroke-width="0.15" d="M445.479,0h148.519c-82.019,0-148.519,66.462-148.519,148.442V0z"/>
	<path fill="none" stroke="#000000" stroke-width="0.15" d="M296.999,445.495c82.019,0,148.48,66.463,148.48,148.518h-148.48
		V445.495z"/>
	<path fill="none" stroke="#000000" stroke-width="0.15" d="M0,0c82.019,0,148.519,66.462,148.519,148.442H0V0z"/>
	<path fill="none" stroke="#000000" stroke-width="0.15" d="M0,594.013c82.019,0,148.519,66.424,148.519,148.443H0V594.013z"/>
	<path fill="none" stroke="#000000" stroke-width="0.15" d="M296.999,0c82.019,0,148.48,66.462,148.48,148.442h-148.48V0z"/>
	<path fill="none" stroke="#000000" stroke-width="0.15" d="M148.519,0c81.98,0,148.48,66.462,148.48,148.442h-148.48V0z"/>
	<path fill="none" stroke="#000000" stroke-width="0.15" d="M445.479,296.977c82.019,0,148.519,66.5,148.519,148.519H445.479
		V296.977z"/>
</g>
</svg>
