<?xml version="1.0" encoding="utf-8"?>
<!-- Generator: Adobe Illustrator 16.0.0, SVG Export Plug-In . SVG Version: 6.00 Build 0)  -->
<!DOCTYPE svg PUBLIC "-//W3C//DTD SVG 1.1//EN" "http://www.w3.org/Graphics/SVG/1.1/DTD/svg11.dtd">
<svg version="1.1" xmlns="http://www.w3.org/2000/svg" xmlns:xlink="http://www.w3.org/1999/xlink" x="0px" y="0px"
	 viewBox="0 0 593.914 742.384" enable-background="new 0 0 593.914 742.384"
	 xml:space="preserve">
<g id="Layer_1">
</g>
<g id="_x31__x5F_SHAPE">
	<path fill="none" stroke="#000000" stroke-width="0.15" d="M148.469,0.015C66.457,0.015-0.038,66.472-0.038,148.484h148.507V0.015z
		"/>
	<path fill="none" stroke="#000000" stroke-width="0.15" d="M593.914,593.928c-82.013,0-148.491,66.458-148.491,148.492h148.491
		V593.928z"/>
	<path fill="none" stroke="#000000" stroke-width="0.15" d="M445.423,445.446c-81.989,0-148.485,66.495-148.485,148.482h148.485
		V445.446z"/>
	<path fill="none" stroke="#000000" stroke-width="0.15" d="M148.469,593.928h148.469c-82.012,0-148.469,66.458-148.469,148.492
		V593.928z"/>
	<path fill="none" stroke="#000000" stroke-width="0.15" d="M296.938,296.953h148.485c-81.989,0-148.485,66.496-148.485,148.493
		V296.953z"/>
	<path fill="none" stroke="#000000" stroke-width="0.15" d="M148.469,296.953h148.469c-82.012,0-148.469,66.496-148.469,148.493
		V296.953z"/>
	<path fill="none" stroke="#000000" stroke-width="0.15" d="M148.469,445.446h148.469c-82.012,0-148.469,66.495-148.469,148.482
		V445.446z"/>
	<path fill="none" stroke="#000000" stroke-width="0.15" d="M445.423,0.015h148.491c-82.013,0-148.491,66.457-148.491,148.469V0.015
		z"/>
	<path fill="none" stroke="#000000" stroke-width="0.15" d="M445.423,593.928c81.996,0,148.491-66.471,148.491-148.482H445.423
		V593.928z"/>
	<path fill="none" stroke="#000000" stroke-width="0.15" d="M148.469,296.953c82.012,0,148.469-66.457,148.469-148.469H148.469
		V296.953z"/>
	<path fill="none" stroke="#000000" stroke-width="0.15" d="M445.423,445.446c81.996,0,148.491-66.458,148.491-148.493H445.423
		V445.446z"/>
	<path fill="none" stroke="#000000" stroke-width="0.15" d="M296.938,148.484h148.485c-81.989,0-148.485,66.48-148.485,148.469
		V148.484z"/>
	<path fill="none" stroke="#000000" stroke-width="0.15" d="M296.938,0.015h148.485c-81.989,0-148.485,66.457-148.485,148.469V0.015
		z"/>
	<path fill="none" stroke="#000000" stroke-width="0.15" d="M-0.038,593.928c82.026,0,148.507,66.458,148.507,148.492H-0.038
		V593.928z"/>
	<path fill="none" stroke="#000000" stroke-width="0.15" d="M148.469,296.953c-82.012,0-148.507-66.457-148.507-148.469h148.507
		V296.953z"/>
	<path fill="none" stroke="#000000" stroke-width="0.15" d="M445.423,742.42c-81.989,0-148.485-66.479-148.485-148.492h148.485
		V742.42z"/>
	<path fill="none" stroke="#000000" stroke-width="0.15" d="M593.914,296.953c-82.013,0-148.491-66.457-148.491-148.469h148.491
		V296.953z"/>
	<path fill="none" stroke="#000000" stroke-width="0.15" d="M296.938,148.484c-82.012,0-148.469-66.472-148.469-148.469h148.469
		V148.484z"/>
	<path fill="none" stroke="#000000" stroke-width="0.15" d="M148.469,593.928C66.495,593.928,0,660.386,0,742.42h148.469V593.928z"
		/>
	<path fill="none" stroke="#000000" stroke-width="0.15" d="M445.453,593.928c-81.973,0-148.469,66.458-148.469,148.492h148.469
		V593.928z"/>
	<path fill="none" stroke="#000000" stroke-width="0.15" d="M593.959,0.015c-82.05,0-148.506,66.457-148.506,148.469h148.506V0.015z
		"/>
	<path fill="none" stroke="#000000" stroke-width="0.15" d="M296.984,445.446c-82.013,0-148.515,66.495-148.515,148.482h148.515
		V445.446z"/>
	<path fill="none" stroke="#000000" stroke-width="0.15" d="M445.453,593.928h148.506c-82.05,0-148.506-66.471-148.506-148.482
		V593.928z"/>
	<path fill="none" stroke="#000000" stroke-width="0.15" d="M148.469,593.928H0c82.012,0,148.469-66.471,148.469-148.482V593.928z"
		/>
	<path fill="none" stroke="#000000" stroke-width="0.15" d="M445.453,296.953H296.984c81.974,0,148.469-66.457,148.469-148.469
		V296.953z"/>
	<path fill="none" stroke="#000000" stroke-width="0.15" d="M445.453,148.484H296.984c81.974,0,148.469-66.472,148.469-148.469
		V148.484z"/>
	<path fill="none" stroke="#000000" stroke-width="0.15" d="M445.453,445.446H296.984c81.974,0,148.469-66.458,148.469-148.493
		V445.446z"/>
	<path fill="none" stroke="#000000" stroke-width="0.15" d="M148.469,148.484h148.515c-82.013,0-148.515,66.48-148.515,148.469
		V148.484z"/>
	<path fill="none" stroke="#000000" stroke-width="0.15" d="M0,296.953c82.012,0,148.469-66.457,148.469-148.469H0V296.953z"/>
	<path fill="none" stroke="#000000" stroke-width="0.15" d="M0,445.446c82.012,0,148.469-66.458,148.469-148.493H0V445.446z"/>
	<path fill="none" stroke="#000000" stroke-width="0.15" d="M445.453,148.484h148.506c-82.05,0-148.506,66.48-148.506,148.469
		V148.484z"/>
	<path fill="none" stroke="#000000" stroke-width="0.15" d="M296.984,445.446h148.469c-81.973,0-148.469,66.495-148.469,148.482
		V445.446z"/>
	<path fill="none" stroke="#000000" stroke-width="0.15" d="M148.469,0.015h148.515c-82.013,0-148.515,66.457-148.515,148.469V0.015
		z"/>
	<path fill="none" stroke="#000000" stroke-width="0.15" d="M148.469,296.953c82.019,0,148.515,66.496,148.515,148.493H148.469
		V296.953z"/>
	<path fill="none" stroke="#000000" stroke-width="0.15" d="M0,0.015c82.012,0,148.469,66.457,148.469,148.469H0V0.015z"/>
	<path fill="none" stroke="#000000" stroke-width="0.15" d="M445.453,296.953c82.011,0,148.506,66.496,148.506,148.493H445.453
		V296.953z"/>
	<path fill="none" stroke="#000000" stroke-width="0.15" d="M445.453,593.928c82.011,0,148.506,66.458,148.506,148.492H445.453
		V593.928z"/>
	<path fill="none" stroke="#000000" stroke-width="0.15" d="M296.976,593.952h148.447c-81.989,0-148.447-66.531-148.447-148.506
		V593.952z"/>
	<path fill="none" stroke="#000000" stroke-width="0.15" d="M0,593.952h148.469C66.457,593.952,0,527.42,0,445.446V593.952z"/>
	<path fill="none" stroke="#000000" stroke-width="0.15" d="M593.914,296.938H445.423c82.033,0,148.491-66.457,148.491-148.507
		V296.938z"/>
	<path fill="none" stroke="#000000" stroke-width="0.15" d="M593.914,148.431H445.423c82.033,0,148.491-66.418,148.491-148.431
		V148.431z"/>
	<path fill="none" stroke="#000000" stroke-width="0.15" d="M148.469,148.431H0c81.974,0,148.469-66.418,148.469-148.431V148.431z"
		/>
	<path fill="none" stroke="#000000" stroke-width="0.15" d="M296.976,296.938H148.469c82.012,0,148.507-66.457,148.507-148.507
		V296.938z"/>
	<path fill="none" stroke="#000000" stroke-width="0.15" d="M296.976,445.446H148.469c82.012,0,148.507-66.458,148.507-148.508
		V445.446z"/>
	<path fill="none" stroke="#000000" stroke-width="0.15" d="M0,296.938h148.469C66.457,296.938,0,363.433,0,445.446V296.938z"/>
	<path fill="none" stroke="#000000" stroke-width="0.15" d="M148.469,742.384c82.012,0,148.507-66.459,148.507-148.433H148.469
		V742.384z"/>
	<path fill="none" stroke="#000000" stroke-width="0.15" d="M296.976,445.446c81.974,0,148.447-66.458,148.447-148.508H296.976
		V445.446z"/>
	<path fill="none" stroke="#000000" stroke-width="0.15" d="M445.423,593.952h148.491c-81.997,0-148.491,66.419-148.491,148.433
		V593.952z"/>
	<path fill="none" stroke="#000000" stroke-width="0.15" d="M445.423,296.938c82.033,0,148.491,66.496,148.491,148.508H445.423
		V296.938z"/>
	<path fill="none" stroke="#000000" stroke-width="0.15" d="M296.976,0c81.974,0,148.447,66.458,148.447,148.431H296.976V0z"/>
	<path fill="none" stroke="#000000" stroke-width="0.15" d="M148.469,445.446c82.012,0,148.507,66.456,148.507,148.506H148.469
		V445.446z"/>
	<path fill="none" stroke="#000000" stroke-width="0.15" d="M148.469,742.384C66.457,742.384,0,675.925,0,593.952h148.469V742.384z"
		/>
	<path fill="none" stroke="#000000" stroke-width="0.15" d="M296.976,593.952c81.974,0,148.447,66.419,148.447,148.433H296.976
		V593.952z"/>
	<path fill="none" stroke="#000000" stroke-width="0.15" d="M296.976,148.431c-82.035,0-148.507-66.418-148.507-148.431h148.507
		V148.431z"/>
	<path fill="none" stroke="#000000" stroke-width="0.15" d="M0,148.431c81.974,0,148.469,66.534,148.469,148.507H0V148.431z"/>
	<path fill="none" stroke="#000000" stroke-width="0.15" d="M296.976,148.431c81.974,0,148.447,66.534,148.447,148.507H296.976
		V148.431z"/>
	<path fill="none" stroke="#000000" stroke-width="0.15" d="M148.469,445.446c-82.012,0-148.492,66.456-148.492,148.506h148.492
		V445.446z"/>
	<path fill="none" stroke="#000000" stroke-width="0.15" d="M296.938,593.952c-82.012,0-148.469,66.419-148.469,148.433h148.469
		V593.952z"/>
	<path fill="none" stroke="#000000" stroke-width="0.15" d="M445.423,0c-81.989,0-148.485,66.458-148.485,148.431h148.485V0z"/>
	<path fill="none" stroke="#000000" stroke-width="0.15" d="M-0.022,742.384h148.492c-82.012,0-148.492-66.459-148.492-148.433
		V742.384z"/>
	<path fill="none" stroke="#000000" stroke-width="0.15" d="M148.469,445.446h148.469c-82.012,0-148.469-66.458-148.469-148.508
		V445.446z"/>
	<path fill="none" stroke="#000000" stroke-width="0.15" d="M593.914,593.952H445.423c81.996,0,148.491-66.531,148.491-148.506
		V593.952z"/>
	<path fill="none" stroke="#000000" stroke-width="0.15" d="M-0.022,445.446c81.996,0,148.492-66.458,148.492-148.508H-0.022
		V445.446z"/>
	<path fill="none" stroke="#000000" stroke-width="0.15" d="M296.938,445.446c82.012,0,148.485-66.458,148.485-148.508H296.938
		V445.446z"/>
	<path fill="none" stroke="#000000" stroke-width="0.15" d="M445.423,593.952h148.491c-82.013,0-148.491,66.419-148.491,148.433
		V593.952z"/>
	<path fill="none" stroke="#000000" stroke-width="0.15" d="M-0.022,148.431h148.492c-82.012,0-148.492,66.534-148.492,148.507
		V148.431z"/>
	<path fill="none" stroke="#000000" stroke-width="0.15" d="M445.423,296.938h148.491c-82.013,0-148.491,66.496-148.491,148.508
		V296.938z"/>
	<path fill="none" stroke="#000000" stroke-width="0.15" d="M296.938,148.431h148.485c-81.989,0-148.485,66.534-148.485,148.507
		V148.431z"/>
	<path fill="none" stroke="#000000" stroke-width="0.15" d="M296.938,445.446c82.012,0,148.485,66.456,148.485,148.506H296.938
		V445.446z"/>
	<path fill="none" stroke="#000000" stroke-width="0.15" d="M148.469,445.446c81.989,0,148.469,66.456,148.469,148.506H148.469
		V445.446z"/>
	<path fill="none" stroke="#000000" stroke-width="0.15" d="M296.938,593.952c82.012,0,148.485,66.419,148.485,148.433H296.938
		V593.952z"/>
	<path fill="none" stroke="#000000" stroke-width="0.15" d="M296.938,148.431c-82.012,0-148.469-66.418-148.469-148.431h148.469
		V148.431z"/>
	<path fill="none" stroke="#000000" stroke-width="0.15" d="M593.914,148.431c-82.013,0-148.491-66.418-148.491-148.431h148.491
		V148.431z"/>
	<path fill="none" stroke="#000000" stroke-width="0.15" d="M593.914,296.938c-82.013,0-148.491-66.457-148.491-148.507h148.491
		V296.938z"/>
</g>
</svg>
