<?xml version="1.0" encoding="utf-8"?>
<!-- Generator: Adobe Illustrator 16.0.0, SVG Export Plug-In . SVG Version: 6.00 Build 0)  -->
<!DOCTYPE svg PUBLIC "-//W3C//DTD SVG 1.1//EN" "http://www.w3.org/Graphics/SVG/1.1/DTD/svg11.dtd">
<svg version="1.1" xmlns="http://www.w3.org/2000/svg" xmlns:xlink="http://www.w3.org/1999/xlink" x="0px" y="0px"
	  viewBox="0 0 593.982 742.479" enable-background="new 0 0 593.982 742.479"
	 xml:space="preserve">
<g id="Layer_1">
</g>
<g id="_x31__x5F_SHAPE">
	<path fill="none" stroke="#000000" stroke-width="0.15" d="M593.982,593.96c-82.003,0-148.503,66.5-148.503,148.519h148.503V593.96
		z"/>
	<path fill="none" stroke="#000000" stroke-width="0.15" d="M296.984,296.961c-82.003,0-148.48,66.5-148.48,148.518h148.48V296.961z
		"/>
	<path fill="none" stroke="#000000" stroke-width="0.15" d="M0,148.503h148.503C66.485,148.503,0,82.003,0,0V148.503z"/>
	<path fill="none" stroke="#000000" stroke-width="0.15" d="M445.479,445.479h148.503c-82.003,0-148.503-66.478-148.503-148.518
		V445.479z"/>
	<path fill="none" stroke="#000000" stroke-width="0.15" d="M445.479,593.96h148.503c-82.003,0-148.503-66.463-148.503-148.48
		V593.96z"/>
	<path fill="none" stroke="#000000" stroke-width="0.15" d="M296.984,296.961h148.496c-81.995,0-148.496-66.463-148.496-148.458
		V296.961z"/>
	<path fill="none" stroke="#000000" stroke-width="0.15" d="M0,742.479c82.003,0,148.503-66.5,148.503-148.519H0V742.479z"/>
	<path fill="none" stroke="#000000" stroke-width="0.15" d="M0,593.96c82.003,0,148.503-66.463,148.503-148.48H0V593.96z"/>
	<path fill="none" stroke="#000000" stroke-width="0.15" d="M296.984,593.96c82.018,0,148.496-66.463,148.496-148.48H296.984V593.96
		z"/>
	<path fill="none" stroke="#000000" stroke-width="0.15" d="M296.984,742.479c82.018,0,148.496-66.5,148.496-148.519H296.984
		V742.479z"/>
	<path fill="none" stroke="#000000" stroke-width="0.15" d="M0,148.503h148.503C66.485,148.503,0,214.965,0,296.961V148.503z"/>
	<path fill="none" stroke="#000000" stroke-width="0.15" d="M148.503,593.96h148.48c-82.003,0-148.48,66.5-148.48,148.519V593.96z"
		/>
	<path fill="none" stroke="#000000" stroke-width="0.15" d="M296.984,296.961h148.496c-81.995,0-148.496,66.5-148.496,148.518
		V296.961z"/>
	<path fill="none" stroke="#000000" stroke-width="0.15" d="M148.503,0c82.018,0,148.48,66.462,148.48,148.503h-148.48V0z"/>
	<path fill="none" stroke="#000000" stroke-width="0.15" d="M445.479,148.503c82.003,0,148.503,66.462,148.503,148.458H445.479
		V148.503z"/>
	<path fill="none" stroke="#000000" stroke-width="0.15" d="M148.503,148.503c82.018,0,148.48,66.462,148.48,148.458h-148.48
		V148.503z"/>
	<path fill="none" stroke="#000000" stroke-width="0.15" d="M148.503,445.479C66.485,445.479,0,379.002,0,296.961h148.503V445.479z"
		/>
	<path fill="none" stroke="#000000" stroke-width="0.15" d="M296.984,593.96c-82.003,0-148.48-66.463-148.48-148.48h148.48V593.96z"
		/>
	<path fill="none" stroke="#000000" stroke-width="0.15" d="M296.984,0c82.018,0,148.496,66.462,148.496,148.503H296.984V0z"/>
	<path fill="none" stroke="#000000" stroke-width="0.15" d="M593.982,148.503c-82.018,0-148.503,66.462-148.503,148.458h148.503
		V148.503z"/>
	<path fill="none" stroke="#000000" stroke-width="0.15" d="M148.48,445.479h148.519c-82.018,0-148.519-66.478-148.519-148.518
		V445.479z"/>
	<path fill="none" stroke="#000000" stroke-width="0.15" d="M296.999,593.96h148.48c-81.995,0-148.48-66.463-148.48-148.48V593.96z"
		/>
	<path fill="none" stroke="#000000" stroke-width="0.15" d="M445.479,148.503h148.503c-82.018,0-148.503-66.5-148.503-148.503
		V148.503z"/>
	<path fill="none" stroke="#000000" stroke-width="0.15" d="M593.982,445.479H445.479c82.019,0,148.503-66.478,148.503-148.518
		V445.479z"/>
	<path fill="none" stroke="#000000" stroke-width="0.15" d="M296.999,593.96H148.48c82.018,0,148.519-66.463,148.519-148.48V593.96z
		"/>
	<path fill="none" stroke="#000000" stroke-width="0.15" d="M296.999,742.479H148.48c82.018,0,148.519-66.5,148.519-148.519V742.479
		z"/>
	<path fill="none" stroke="#000000" stroke-width="0.15" d="M445.479,445.479h148.503c-82.018,0-148.503,66.484-148.503,148.48
		V445.479z"/>
	<path fill="none" stroke="#000000" stroke-width="0.15" d="M0,148.503h148.48C66.5,148.503,0,214.965,0,296.961V148.503z"/>
	<path fill="none" stroke="#000000" stroke-width="0.15" d="M148.48,148.503h148.519c-82.018,0-148.519,66.462-148.519,148.458
		V148.503z"/>
	<path fill="none" stroke="#000000" stroke-width="0.15" d="M296.999,296.961c82.003,0,148.48-66.463,148.48-148.458h-148.48
		V296.961z"/>
	<path fill="none" stroke="#000000" stroke-width="0.15" d="M0,445.479h148.48C66.5,445.479,0,511.964,0,593.96V445.479z"/>
	<path fill="none" stroke="#000000" stroke-width="0.15" d="M0,593.96c82.019,0,148.48,66.5,148.48,148.519H0V593.96z"/>
	<path fill="none" stroke="#000000" stroke-width="0.15" d="M445.479,593.96c82.019,0,148.503,66.5,148.503,148.519H445.479V593.96z
		"/>
	<path fill="none" stroke="#000000" stroke-width="0.15" d="M296.999,0c82.003,0,148.48,66.462,148.48,148.503h-148.48V0z"/>
	<path fill="none" stroke="#000000" stroke-width="0.15" d="M0,296.961c82.019,0,148.48,66.5,148.48,148.518H0V296.961z"/>
	<path fill="none" stroke="#000000" stroke-width="0.15" d="M296.999,593.96c82.003,0,148.48,66.5,148.48,148.519h-148.48V593.96z"
		/>
	<path fill="none" stroke="#000000" stroke-width="0.15" d="M148.48,445.479C66.462,445.479,0,511.964,0,593.96h148.48V445.479z"/>
	<path fill="none" stroke="#000000" stroke-width="0.15" d="M148.48,593.96C66.462,593.96,0,660.46,0,742.479h148.48V593.96z"/>
	<path fill="none" stroke="#000000" stroke-width="0.15" d="M148.48,445.479h148.48c-81.995,0-148.48-66.478-148.48-148.518V445.479
		z"/>
	<path fill="none" stroke="#000000" stroke-width="0.15" d="M296.961,445.479h148.503c-82.002,0-148.503-66.478-148.503-148.518
		V445.479z"/>
	<path fill="none" stroke="#000000" stroke-width="0.15" d="M445.464,593.96h148.519c-82.041,0-148.519-66.463-148.519-148.48
		V593.96z"/>
	<path fill="none" stroke="#000000" stroke-width="0.15" d="M445.464,742.479H296.961c82.057,0,148.503-66.5,148.503-148.519
		V742.479z"/>
	<path fill="none" stroke="#000000" stroke-width="0.15" d="M148.48,148.503H0c82.003,0,148.48-66.5,148.48-148.503V148.503z"/>
	<path fill="none" stroke="#000000" stroke-width="0.15" d="M148.48,445.479h148.48c-81.995,0-148.48,66.484-148.48,148.48V445.479z
		"/>
	<path fill="none" stroke="#000000" stroke-width="0.15" d="M148.48,148.503h148.48c-81.995,0-148.48,66.462-148.48,148.458V148.503
		z"/>
	<path fill="none" stroke="#000000" stroke-width="0.15" d="M445.464,148.503c81.996,0,148.519-66.5,148.519-148.503H445.464
		V148.503z"/>
	<path fill="none" stroke="#000000" stroke-width="0.15" d="M296.961,148.503h148.503c-82.002,0-148.503,66.462-148.503,148.458
		V148.503z"/>
	<path fill="none" stroke="#000000" stroke-width="0.15" d="M296.961,445.479c82.057,0,148.503,66.484,148.503,148.48H296.961
		V445.479z"/>
	<path fill="none" stroke="#000000" stroke-width="0.15" d="M148.48,0c82.018,0,148.48,66.462,148.48,148.503H148.48V0z"/>
	<path fill="none" stroke="#000000" stroke-width="0.15" d="M148.48,593.96c82.018,0,148.48,66.5,148.48,148.519H148.48V593.96z"/>
	<path fill="none" stroke="#000000" stroke-width="0.15" d="M445.464,593.96c81.996,0,148.519,66.5,148.519,148.519H445.464V593.96z
		"/>
	<path fill="none" stroke="#000000" stroke-width="0.15" d="M148.48,296.961C66.462,296.961,0,230.499,0,148.503h148.48V296.961z"/>
	<path fill="none" stroke="#000000" stroke-width="0.15" d="M445.464,148.503c81.996,0,148.519,66.462,148.519,148.458H445.464
		V148.503z"/>
	<path fill="none" stroke="#000000" stroke-width="0.15" d="M445.464,296.961c81.996,0,148.519,66.5,148.519,148.518H445.464
		V296.961z"/>
	<path fill="none" stroke="#000000" stroke-width="0.15" d="M445.479,445.479c-81.98,0-148.48,66.484-148.48,148.48h148.48V445.479z
		"/>
	<path fill="none" stroke="#000000" stroke-width="0.15" d="M296.999,296.961c-82.018,0-148.496,66.5-148.496,148.518h148.496
		V296.961z"/>
	<path fill="none" stroke="#000000" stroke-width="0.15" d="M593.998,148.503c-82.033,0-148.519,66.462-148.519,148.458h148.519
		V148.503z"/>
	<path fill="none" stroke="#000000" stroke-width="0.15" d="M0,593.96h148.503C66.5,593.96,0,527.497,0,445.479V593.96z"/>
	<path fill="none" stroke="#000000" stroke-width="0.15" d="M296.999,296.961H148.503c81.995,0,148.496-66.463,148.496-148.458
		V296.961z"/>
	<path fill="none" stroke="#000000" stroke-width="0.15" d="M445.479,742.479c82.041,0,148.519-66.5,148.519-148.519H445.479
		V742.479z"/>
	<path fill="none" stroke="#000000" stroke-width="0.15" d="M296.999,296.961c82.019,0,148.48-66.463,148.48-148.458h-148.48
		V296.961z"/>
	<path fill="none" stroke="#000000" stroke-width="0.15" d="M0,296.961c82.019,0,148.503-66.463,148.503-148.458H0V296.961z"/>
	<path fill="none" stroke="#000000" stroke-width="0.15" d="M445.479,148.503c82.041,0,148.519-66.5,148.519-148.503H445.479
		V148.503z"/>
	<path fill="none" stroke="#000000" stroke-width="0.15" d="M445.479,445.479h148.519c-82.033,0-148.519,66.484-148.519,148.48
		V445.479z"/>
	<path fill="none" stroke="#000000" stroke-width="0.15" d="M0,593.96h148.503C66.5,593.96,0,660.46,0,742.479V593.96z"/>
	<path fill="none" stroke="#000000" stroke-width="0.15" d="M0,0h148.503C66.5,0,0,66.462,0,148.503V0z"/>
	<path fill="none" stroke="#000000" stroke-width="0.15" d="M148.503,0h148.496c-82.018,0-148.496,66.462-148.496,148.503V0z"/>
	<path fill="none" stroke="#000000" stroke-width="0.15" d="M296.999,296.961c82.019,0,148.48,66.5,148.48,148.518h-148.48V296.961z
		"/>
	<path fill="none" stroke="#000000" stroke-width="0.15" d="M148.503,445.479c81.995,0,148.496,66.484,148.496,148.48H148.503
		V445.479z"/>
	<path fill="none" stroke="#000000" stroke-width="0.15" d="M148.503,445.479C66.5,445.479,0,379.002,0,296.961h148.503V445.479z"/>
	<path fill="none" stroke="#000000" stroke-width="0.15" d="M445.479,742.479c-81.98,0-148.48-66.5-148.48-148.519h148.48V742.479z"
		/>
	<path fill="none" stroke="#000000" stroke-width="0.15" d="M148.503,593.96c81.995,0,148.496,66.5,148.496,148.519H148.503V593.96z
		"/>
	<path fill="none" stroke="#000000" stroke-width="0.15" d="M445.479,148.503c-81.98,0-148.48-66.5-148.48-148.503h148.48V148.503z"
		/>
	<path fill="none" stroke="#000000" stroke-width="0.15" d="M445.479,296.961c82.041,0,148.519,66.5,148.519,148.518H445.479
		V296.961z"/>
</g>
</svg>
