<?xml version="1.0" encoding="utf-8"?>
<!-- Generator: Adobe Illustrator 16.0.0, SVG Export Plug-In . SVG Version: 6.00 Build 0)  -->
<!DOCTYPE svg PUBLIC "-//W3C//DTD SVG 1.1//EN" "http://www.w3.org/Graphics/SVG/1.1/DTD/svg11.dtd">
<svg version="1.1" xmlns="http://www.w3.org/2000/svg" xmlns:xlink="http://www.w3.org/1999/xlink" x="0px" y="0px"
	  viewBox="0 0 593.985 475.229" enable-background="new 0 0 593.985 475.229"
	 xml:space="preserve">
<g id="Layer_1">
</g>
<g id="_x31__x5F_SHAPE">
	<path fill="none" stroke="#000000" stroke-width="0.15" d="M118.78,356.413c-65.586,0-118.792,53.171-118.792,118.816H118.78
		V356.413z"/>
	<path fill="none" stroke="#000000" stroke-width="0.15" d="M356.383,356.413c-65.586,0-118.787,53.171-118.787,118.816h118.787
		V356.413z"/>
	<path fill="none" stroke="#000000" stroke-width="0.15" d="M237.596,237.633c-65.615,0-118.815,53.195-118.815,118.78h118.815
		V237.633z"/>
	<path fill="none" stroke="#000000" stroke-width="0.15" d="M356.383,356.413h118.815c-65.646,0-118.815-53.17-118.815-118.78
		V356.413z"/>
	<path fill="none" stroke="#000000" stroke-width="0.15" d="M118.78,356.413H-0.012c65.622,0,118.792-53.17,118.792-118.78V356.413z
		"/>
	<path fill="none" stroke="#000000" stroke-width="0.15" d="M356.383,118.816H237.596c65.586,0,118.787-53.17,118.787-118.792
		V118.816z"/>
	<path fill="none" stroke="#000000" stroke-width="0.15" d="M356.383,237.633H237.596c65.586,0,118.787-53.17,118.787-118.816
		V237.633z"/>
	<path fill="none" stroke="#000000" stroke-width="0.15" d="M118.78,0.024h118.815c-65.615,0-118.815,53.208-118.815,118.792V0.024z
		"/>
	<path fill="none" stroke="#000000" stroke-width="0.15" d="M-0.012,118.816c65.622,0,118.792-53.17,118.792-118.792H-0.012V118.816
		z"/>
	<path fill="none" stroke="#000000" stroke-width="0.15" d="M-0.012,237.633c65.622,0,118.792-53.17,118.792-118.816H-0.012V237.633
		z"/>
	<path fill="none" stroke="#000000" stroke-width="0.15" d="M475.198,118.816c65.586,0,118.757-53.17,118.757-118.792H475.198
		V118.816z"/>
	<path fill="none" stroke="#000000" stroke-width="0.15" d="M356.383,0.024h118.815c-65.646,0-118.815,53.208-118.815,118.792V0.024
		z"/>
	<path fill="none" stroke="#000000" stroke-width="0.15" d="M237.596,237.633h118.787c-65.586,0-118.787,53.195-118.787,118.78
		V237.633z"/>
	<path fill="none" stroke="#000000" stroke-width="0.15" d="M475.198,356.413c65.586,0,118.757,53.171,118.757,118.816H475.198
		V356.413z"/>
	<path fill="none" stroke="#000000" stroke-width="0.15" d="M118.78,118.816c65.615,0,118.815,53.195,118.815,118.816H118.78
		V118.816z"/>
	<path fill="none" stroke="#000000" stroke-width="0.15" d="M356.383,118.816c65.614,0,118.815,53.195,118.815,118.816H356.383
		V118.816z"/>
	<path fill="none" stroke="#000000" stroke-width="0.15" d="M356.383,356.413c65.614,0,118.815,53.171,118.815,118.816H356.383
		V356.413z"/>
	<path fill="none" stroke="#000000" stroke-width="0.15" d="M475.198,237.633c65.586,0,118.757,53.195,118.757,118.78H475.198
		V237.633z"/>
	<path fill="none" stroke="#000000" stroke-width="0.15" d="M237.596,356.449h118.757c-65.586,0-118.757-53.23-118.757-118.816
		V356.449z"/>
	<path fill="none" stroke="#000000" stroke-width="0.15" d="M-0.012,356.449H118.78c-65.616,0-118.792-53.23-118.792-118.816
		V356.449z"/>
	<path fill="none" stroke="#000000" stroke-width="0.15" d="M475.168,118.816H356.353c65.645,0,118.815-53.17,118.815-118.816
		V118.816z"/>
	<path fill="none" stroke="#000000" stroke-width="0.15" d="M237.596,118.816H118.78c65.615,0,118.815-53.17,118.815-118.816
		V118.816z"/>
	<path fill="none" stroke="#000000" stroke-width="0.15" d="M237.596,237.633H118.78c65.615,0,118.815-53.17,118.815-118.816
		V237.633z"/>
	<path fill="none" stroke="#000000" stroke-width="0.15" d="M475.168,237.633h118.787c-65.586,0-118.787,53.171-118.787,118.816
		V237.633z"/>
	<path fill="none" stroke="#000000" stroke-width="0.15" d="M475.168,0h118.787c-65.586,0-118.787,53.231-118.787,118.816V0z"/>
	<path fill="none" stroke="#000000" stroke-width="0.15" d="M-0.012,118.816H118.78c-65.616,0-118.792,53.195-118.792,118.816
		V118.816z"/>
	<path fill="none" stroke="#000000" stroke-width="0.15" d="M118.78,475.205c65.615,0,118.815-53.17,118.815-118.756H118.78V475.205
		z"/>
	<path fill="none" stroke="#000000" stroke-width="0.15" d="M237.596,237.633c65.586,0,118.757-53.17,118.757-118.816H237.596
		V237.633z"/>
	<path fill="none" stroke="#000000" stroke-width="0.15" d="M356.353,356.449h118.815c-65.615,0-118.815,53.135-118.815,118.756
		V356.449z"/>
	<path fill="none" stroke="#000000" stroke-width="0.15" d="M475.168,118.816h118.787c-65.586,0-118.787,53.195-118.787,118.816
		V118.816z"/>
	<path fill="none" stroke="#000000" stroke-width="0.15" d="M475.168,356.449c65.586,0,118.787,53.135,118.787,118.756H475.168
		V356.449z"/>
	<path fill="none" stroke="#000000" stroke-width="0.15" d="M356.353,118.816c65.645,0,118.815,53.195,118.815,118.816H356.353
		V118.816z"/>
	<path fill="none" stroke="#000000" stroke-width="0.15" d="M118.78,237.633c65.615,0,118.815,53.171,118.815,118.816H118.78
		V237.633z"/>
	<path fill="none" stroke="#000000" stroke-width="0.15" d="M118.78,475.205c-65.616,0-118.792-53.17-118.792-118.756H118.78
		V475.205z"/>
	<path fill="none" stroke="#000000" stroke-width="0.15" d="M237.596,356.449c65.586,0,118.757,53.135,118.757,118.756H237.596
		V356.449z"/>
	<path fill="none" stroke="#000000" stroke-width="0.15" d="M-0.012,0C65.579,0,118.78,53.231,118.78,118.816H-0.012V0z"/>
	<path fill="none" stroke="#000000" stroke-width="0.15" d="M237.596,0c65.586,0,118.757,53.231,118.757,118.816H237.596V0z"/>
	<path fill="none" stroke="#000000" stroke-width="0.15" d="M593.985,237.633c-65.646,0-118.817,53.171-118.817,118.816h118.817
		V237.633z"/>
	<path fill="none" stroke="#000000" stroke-width="0.15" d="M118.78,237.633c-65.616,0-118.792,53.171-118.792,118.816H118.78
		V237.633z"/>
	<path fill="none" stroke="#000000" stroke-width="0.15" d="M237.565,356.449c-65.615,0-118.785,53.135-118.785,118.756h118.785
		V356.449z"/>
	<path fill="none" stroke="#000000" stroke-width="0.15" d="M-0.012,475.205H118.78c-65.616,0-118.792-53.17-118.792-118.756
		V475.205z"/>
	<path fill="none" stroke="#000000" stroke-width="0.15" d="M118.78,237.633h118.785c-65.615,0-118.785-53.17-118.785-118.816
		V237.633z"/>
	<path fill="none" stroke="#000000" stroke-width="0.15" d="M475.168,356.449H356.383c65.584,0,118.785-53.23,118.785-118.816
		V356.449z"/>
	<path fill="none" stroke="#000000" stroke-width="0.15" d="M593.985,237.633H475.168c65.616,0,118.817-53.17,118.817-118.816
		V237.633z"/>
	<path fill="none" stroke="#000000" stroke-width="0.15" d="M475.168,475.205c65.616,0,118.817-53.17,118.817-118.756H475.168
		V475.205z"/>
	<path fill="none" stroke="#000000" stroke-width="0.15" d="M-0.012,237.633c65.591,0,118.792-53.17,118.792-118.816H-0.012V237.633
		z"/>
	<path fill="none" stroke="#000000" stroke-width="0.15" d="M237.565,237.633c65.616,0,118.817-53.17,118.817-118.816H237.565
		V237.633z"/>
	<path fill="none" stroke="#000000" stroke-width="0.15" d="M356.383,356.449h118.785c-65.615,0-118.785,53.135-118.785,118.756
		V356.449z"/>
	<path fill="none" stroke="#000000" stroke-width="0.15" d="M-0.012,0H118.78C53.164,0-0.012,53.231-0.012,118.816V0z"/>
	<path fill="none" stroke="#000000" stroke-width="0.15" d="M356.383,118.816h118.785c-65.615,0-118.785,53.195-118.785,118.816
		V118.816z"/>
	<path fill="none" stroke="#000000" stroke-width="0.15" d="M237.565,0h118.817c-65.616,0-118.817,53.231-118.817,118.816V0z"/>
	<path fill="none" stroke="#000000" stroke-width="0.15" d="M237.565,237.633c65.616,0,118.817,53.171,118.817,118.816H237.565
		V237.633z"/>
	<path fill="none" stroke="#000000" stroke-width="0.15" d="M118.78,237.633c65.615,0,118.785,53.171,118.785,118.816H118.78
		V237.633z"/>
	<path fill="none" stroke="#000000" stroke-width="0.15" d="M237.565,356.449c65.616,0,118.817,53.135,118.817,118.756H237.565
		V356.449z"/>
	<path fill="none" stroke="#000000" stroke-width="0.15" d="M475.168,118.816c-65.615,0-118.785-53.17-118.785-118.816h118.785
		V118.816z"/>
	<path fill="none" stroke="#000000" stroke-width="0.15" d="M475.168,0c65.616,0,118.817,53.231,118.817,118.816H475.168V0z"/>
	<path fill="none" stroke="#000000" stroke-width="0.15" d="M593.985,356.461c-65.616,0-118.817,53.14-118.817,118.755h118.817
		V356.461z"/>
	<path fill="none" stroke="#000000" stroke-width="0.15" d="M118.78,0C53.194,0,0,53.231,0,118.829h118.78V0z"/>
	<path fill="none" stroke="#000000" stroke-width="0.15" d="M237.596,118.829c-65.615,0-118.815,53.201-118.815,118.816h118.815
		V118.829z"/>
	<path fill="none" stroke="#000000" stroke-width="0.15" d="M356.383,118.829c-65.616,0-118.787,53.201-118.787,118.816h118.787
		V118.829z"/>
	<path fill="none" stroke="#000000" stroke-width="0.15" d="M237.596,0C171.981,0,118.78,53.231,118.78,118.829h118.815V0z"/>
	<path fill="none" stroke="#000000" stroke-width="0.15" d="M475.168,356.461h118.817c-65.616,0-118.817-53.23-118.817-118.816
		V356.461z"/>
	<path fill="none" stroke="#000000" stroke-width="0.15" d="M237.596,475.217h118.787c-65.616,0-118.787-53.17-118.787-118.755
		V475.217z"/>
	<path fill="none" stroke="#000000" stroke-width="0.15" d="M237.596,118.829h118.787c-65.616,0-118.787-53.183-118.787-118.829
		V118.829z"/>
	<path fill="none" stroke="#000000" stroke-width="0.15" d="M237.596,356.461H118.78c65.615,0,118.815-53.23,118.815-118.816
		V356.461z"/>
	<path fill="none" stroke="#000000" stroke-width="0.15" d="M593.985,118.829H475.168c65.616,0,118.817-53.183,118.817-118.829
		V118.829z"/>
	<path fill="none" stroke="#000000" stroke-width="0.15" d="M356.383,475.217c65.614,0,118.785-53.17,118.785-118.755H356.383
		V475.217z"/>
	<path fill="none" stroke="#000000" stroke-width="0.15" d="M356.383,237.645c65.614,0,118.785-53.171,118.785-118.816H356.383
		V237.645z"/>
	<path fill="none" stroke="#000000" stroke-width="0.15" d="M237.596,237.645h118.787c-65.616,0-118.787,53.171-118.787,118.816
		V237.645z"/>
	<path fill="none" stroke="#000000" stroke-width="0.15" d="M0,356.461h118.78C53.194,356.461,0,409.602,0,475.217V356.461z"/>
	<path fill="none" stroke="#000000" stroke-width="0.15" d="M356.383,0h118.785c-65.584,0-118.785,53.231-118.785,118.829V0z"/>
	<path fill="none" stroke="#000000" stroke-width="0.15" d="M356.383,237.645c65.614,0,118.785,53.171,118.785,118.816H356.383
		V237.645z"/>
	<path fill="none" stroke="#000000" stroke-width="0.15" d="M0,237.645c65.609,0,118.78,53.171,118.78,118.816H0V237.645z"/>
	<path fill="none" stroke="#000000" stroke-width="0.15" d="M118.78,356.461c65.615,0,118.815,53.14,118.815,118.755H118.78V356.461
		z"/>
	<path fill="none" stroke="#000000" stroke-width="0.15" d="M475.168,118.829c65.616,0,118.817,53.201,118.817,118.816H475.168
		V118.829z"/>
</g>
</svg>
