<?xml version="1.0" encoding="utf-8"?>
<!-- Generator: Adobe Illustrator 16.0.0, SVG Export Plug-In . SVG Version: 6.00 Build 0)  -->
<!DOCTYPE svg PUBLIC "-//W3C//DTD SVG 1.1//EN" "http://www.w3.org/Graphics/SVG/1.1/DTD/svg11.dtd">
<svg version="1.1" xmlns="http://www.w3.org/2000/svg" xmlns:xlink="http://www.w3.org/1999/xlink" x="0px" y="0px"  viewBox="0 0 595 521.521" enable-background="new 0 0 595 521.521" xml:space="preserve">
<g id="Layer_1">
</g>
<g id="_x31__x5F_SHAPE">
	<path fill="none" stroke="#000000" stroke-width="0.15" d="M297.503,0c-41.079,0-74.385,33.357-74.385,74.497h74.385V0z"/>
	<path fill="none" stroke="#000000" stroke-width="0.15" d="M297.503,149.012c-41.079,0-74.385,33.346-74.385,74.497h74.385V149.012
		z"/>
	<path fill="none" stroke="#000000" stroke-width="0.15" d="M74.378,149.012C33.306,149.012,0,182.358,0,223.508h74.378V149.012z"/>
	<path fill="none" stroke="#000000" stroke-width="0.15" d="M520.623,447.017c-41.078,0-74.375,33.346-74.375,74.504h74.375V447.017
		z"/>
	<path fill="none" stroke="#000000" stroke-width="0.15" d="M446.248,372.513c-41.07,0-74.377,33.362-74.377,74.504h74.377V372.513z
		"/>
	<path fill="none" stroke="#000000" stroke-width="0.15" d="M74.378,74.497h74.385c-41.09,0-74.385-33.346-74.385-74.497V74.497z"/>
	<path fill="none" stroke="#000000" stroke-width="0.15" d="M0,447.017h74.378C33.306,447.017,0,413.66,0,372.513V447.017z"/>
	<path fill="none" stroke="#000000" stroke-width="0.15" d="M0,372.513h74.378C33.306,372.513,0,339.167,0,298.005V372.513z"/>
	<path fill="none" stroke="#000000" stroke-width="0.15" d="M74.378,149.012H0c41.098,0,74.378-33.365,74.378-74.515V149.012z"/>
	<path fill="none" stroke="#000000" stroke-width="0.15" d="M297.503,447.017h74.367c-41.078,0-74.367,33.346-74.367,74.504V447.017
		z"/>
	<path fill="none" stroke="#000000" stroke-width="0.15" d="M371.871,298.005h74.377c-41.07,0-74.377,33.365-74.377,74.508V298.005z
		"/>
	<path fill="none" stroke="#000000" stroke-width="0.15" d="M297.503,298.005h74.367c-41.078,0-74.367,33.365-74.367,74.508V298.005
		z"/>
	<path fill="none" stroke="#000000" stroke-width="0.15" d="M297.503,372.513h74.367c-41.078,0-74.367,33.362-74.367,74.504V372.513
		z"/>
	<path fill="none" stroke="#000000" stroke-width="0.15" d="M446.248,149.012h74.375c-41.078,0-74.375,33.346-74.375,74.497V149.012
		z"/>
	<path fill="none" stroke="#000000" stroke-width="0.15" d="M297.503,74.497h74.367c-41.078,0-74.367,33.364-74.367,74.515V74.497z"
		/>
	<path fill="none" stroke="#000000" stroke-width="0.15" d="M520.623,74.497h74.367c-41.08,0-74.367,33.364-74.367,74.515V74.497z"
		/>
	<path fill="none" stroke="#000000" stroke-width="0.15" d="M371.871,74.497c41.078,0,74.377-33.346,74.377-74.497h-74.377V74.497z"
		/>
	<path fill="none" stroke="#000000" stroke-width="0.15" d="M74.378,521.521c41.067,0,74.385-33.354,74.385-74.504H74.378V521.521z"
		/>
	<path fill="none" stroke="#000000" stroke-width="0.15" d="M148.763,223.508c41.06,0,74.355-33.357,74.355-74.497h-74.355V223.508z
		"/>
	<path fill="none" stroke="#000000" stroke-width="0.15" d="M148.763,149.012c41.06,0,74.355-33.365,74.355-74.515h-74.355V149.012z
		"/>
	<path fill="none" stroke="#000000" stroke-width="0.15" d="M446.248,447.017c41.068,0,74.375-33.357,74.375-74.504h-74.375V447.017
		z"/>
	<path fill="none" stroke="#000000" stroke-width="0.15" d="M520.623,298.005c41.07,0,74.367-33.346,74.367-74.497h-74.367V298.005z
		"/>
	<path fill="none" stroke="#000000" stroke-width="0.15" d="M297.503,298.005c41.08,0,74.367-33.346,74.367-74.497h-74.367V298.005z
		"/>
	<path fill="none" stroke="#000000" stroke-width="0.15" d="M446.248,372.513c41.068,0,74.375-33.346,74.375-74.508h-74.375V372.513
		z"/>
	<path fill="none" stroke="#000000" stroke-width="0.15" d="M223.118,74.497h74.385c-41.079,0-74.385,33.364-74.385,74.515V74.497z"
		/>
	<path fill="none" stroke="#000000" stroke-width="0.15" d="M74.378,223.508h74.385c-41.09,0-74.385,33.357-74.385,74.497V223.508z"
		/>
	<path fill="none" stroke="#000000" stroke-width="0.15" d="M148.763,223.508h74.355c-41.06,0-74.355,33.357-74.355,74.497V223.508z
		"/>
	<path fill="none" stroke="#000000" stroke-width="0.15" d="M371.871,223.508h74.377c-41.07,0-74.377,33.357-74.377,74.497V223.508z
		"/>
	<path fill="none" stroke="#000000" stroke-width="0.15" d="M446.248,74.497h74.375c-41.078,0-74.375,33.364-74.375,74.515V74.497z"
		/>
	<path fill="none" stroke="#000000" stroke-width="0.15" d="M371.871,149.012h74.377c-41.07,0-74.377,33.346-74.377,74.497V149.012z
		"/>
	<path fill="none" stroke="#000000" stroke-width="0.15" d="M297.503,0c41.08,0,74.367,33.357,74.367,74.497h-74.367V0z"/>
	<path fill="none" stroke="#000000" stroke-width="0.15" d="M148.763,0c41.06,0,74.355,33.357,74.355,74.497h-74.355V0z"/>
	<path fill="none" stroke="#000000" stroke-width="0.15" d="M0,0c41.098,0,74.378,33.357,74.378,74.497H0V0z"/>
	<path fill="none" stroke="#000000" stroke-width="0.15" d="M74.378,298.005c41.067,0,74.385,33.365,74.385,74.508H74.378V298.005z"
		/>
	<path fill="none" stroke="#000000" stroke-width="0.15" d="M74.378,149.012c41.067,0,74.385,33.346,74.385,74.497H74.378V149.012z"
		/>
	<path fill="none" stroke="#000000" stroke-width="0.15" d="M520.623,298.005c41.07,0,74.367,33.365,74.367,74.508h-74.367V298.005z
		"/>
	<path fill="none" stroke="#000000" stroke-width="0.15" d="M594.99,74.497c-41.08,0-74.367-33.346-74.367-74.497h74.367V74.497z"/>
	<path fill="none" stroke="#000000" stroke-width="0.15" d="M223.118,447.017c41.09,0,74.385,33.346,74.385,74.504h-74.385V447.017z
		"/>
	<path fill="none" stroke="#000000" stroke-width="0.15" d="M297.503,298.005c-41.079,0-74.385-33.346-74.385-74.497h74.385V298.005
		z"/>
	<path fill="none" stroke="#000000" stroke-width="0.15" d="M148.763,447.017c41.06,0,74.355,33.346,74.355,74.504h-74.355V447.017z
		"/>
	<path fill="none" stroke="#000000" stroke-width="0.15" d="M0,447.017c41.098,0,74.378,33.346,74.378,74.504H0V447.017z"/>
	<path fill="none" stroke="#000000" stroke-width="0.15" d="M0,223.508c41.098,0,74.378,33.357,74.378,74.497H0V223.508z"/>
	<path fill="none" stroke="#000000" stroke-width="0.15" d="M223.118,372.513c-41.06,0-74.355-33.346-74.355-74.508h74.355V372.513z
		"/>
	<path fill="none" stroke="#000000" stroke-width="0.15" d="M148.763,372.513c41.06,0,74.355,33.362,74.355,74.504h-74.355V372.513z
		"/>
	<path fill="none" stroke="#000000" stroke-width="0.15" d="M74.378,74.497c41.067,0,74.385,33.364,74.385,74.515H74.378V74.497z"/>
	<path fill="none" stroke="#000000" stroke-width="0.15" d="M446.248,521.521c-41.07,0-74.377-33.354-74.377-74.504h74.377V521.521z
		"/>
	<path fill="none" stroke="#000000" stroke-width="0.15" d="M520.623,298.005c-41.078,0-74.375-33.346-74.375-74.497h74.375V298.005
		z"/>
	<path fill="none" stroke="#000000" stroke-width="0.15" d="M594.99,223.508c-41.08,0-74.367-33.357-74.367-74.497h74.367V223.508z"
		/>
	<path fill="none" stroke="#000000" stroke-width="0.15" d="M371.871,223.508c-41.078,0-74.367-33.357-74.367-74.497h74.367V223.508
		z"/>
	<path fill="none" stroke="#000000" stroke-width="0.15" d="M520.623,372.513c41.07,0,74.367,33.362,74.367,74.504h-74.367V372.513z
		"/>
	<path fill="none" stroke="#000000" stroke-width="0.15" d="M594.998,0c-41.062,0-74.35,33.357-74.35,74.497h74.35V0z"/>
	<path fill="none" stroke="#000000" stroke-width="0.15" d="M74.385,0C33.326,0,0.019,33.357,0.019,74.497h74.367V0z"/>
	<path fill="none" stroke="#000000" stroke-width="0.15" d="M297.503,447.017c-41.06,0-74.366,33.346-74.366,74.504h74.366V447.017z
		"/>
	<path fill="none" stroke="#000000" stroke-width="0.15" d="M446.263,447.017c-41.061,0-74.367,33.346-74.367,74.504h74.367V447.017
		z"/>
	<path fill="none" stroke="#000000" stroke-width="0.15" d="M520.648,149.012c-41.096,0-74.385,33.346-74.385,74.497h74.385V149.012
		z"/>
	<path fill="none" stroke="#000000" stroke-width="0.15" d="M223.137,223.508c-41.079,0-74.366,33.357-74.366,74.497h74.366V223.508
		z"/>
	<path fill="none" stroke="#000000" stroke-width="0.15" d="M371.896,372.513c-41.078,0-74.393,33.362-74.393,74.504h74.393V372.513
		z"/>
	<path fill="none" stroke="#000000" stroke-width="0.15" d="M594.998,149.012c-41.062,0-74.35,33.346-74.35,74.497h74.35V149.012z"
		/>
	<path fill="none" stroke="#000000" stroke-width="0.15" d="M0.019,372.513h74.367c-41.06,0-74.367-33.346-74.367-74.508V372.513z"
		/>
	<path fill="none" stroke="#000000" stroke-width="0.15" d="M446.263,447.017h74.385c-41.096,0-74.385-33.357-74.385-74.504V447.017
		z"/>
	<path fill="none" stroke="#000000" stroke-width="0.15" d="M297.503,149.012h74.393c-41.078,0-74.393-33.365-74.393-74.515V149.012
		z"/>
	<path fill="none" stroke="#000000" stroke-width="0.15" d="M520.648,149.012h74.35c-41.062,0-74.35-33.365-74.35-74.515V149.012z"
		/>
	<path fill="none" stroke="#000000" stroke-width="0.15" d="M520.648,74.497h-74.385c41.078,0,74.385-33.346,74.385-74.497V74.497z"
		/>
	<path fill="none" stroke="#000000" stroke-width="0.15" d="M74.385,298.005H0.019c41.079,0,74.367-33.346,74.367-74.497V298.005z"
		/>
	<path fill="none" stroke="#000000" stroke-width="0.15" d="M297.503,447.017h-74.366c41.079,0,74.366-33.357,74.366-74.504V447.017
		z"/>
	<path fill="none" stroke="#000000" stroke-width="0.15" d="M446.263,298.005h-74.367c41.061,0,74.367-33.346,74.367-74.497V298.005
		z"/>
	<path fill="none" stroke="#000000" stroke-width="0.15" d="M446.263,223.508h-74.367c41.061,0,74.367-33.357,74.367-74.497V223.508
		z"/>
	<path fill="none" stroke="#000000" stroke-width="0.15" d="M446.263,372.513h-74.367c41.061,0,74.367-33.346,74.367-74.508V372.513
		z"/>
	<path fill="none" stroke="#000000" stroke-width="0.15" d="M223.137,372.513h-74.366c41.06,0,74.366-33.346,74.366-74.508V372.513z
		"/>
	<path fill="none" stroke="#000000" stroke-width="0.15" d="M223.137,0h74.366c-41.06,0-74.366,33.357-74.366,74.497V0z"/>
	<path fill="none" stroke="#000000" stroke-width="0.15" d="M297.503,223.508h74.393c-41.078,0-74.393,33.357-74.393,74.497V223.508
		z"/>
	<path fill="none" stroke="#000000" stroke-width="0.15" d="M148.771,149.012h74.366c-41.079,0-74.366,33.346-74.366,74.497V149.012
		z"/>
	<path fill="none" stroke="#000000" stroke-width="0.15" d="M371.896,149.012c41.061,0,74.367-33.365,74.367-74.515h-74.367V149.012
		z"/>
	<path fill="none" stroke="#000000" stroke-width="0.15" d="M223.137,298.005c41.079,0,74.366-33.346,74.366-74.497h-74.366V298.005
		z"/>
	<path fill="none" stroke="#000000" stroke-width="0.15" d="M223.137,372.513c41.079,0,74.366-33.346,74.366-74.508h-74.366V372.513
		z"/>
	<path fill="none" stroke="#000000" stroke-width="0.15" d="M74.385,372.513c41.09,0,74.386-33.346,74.386-74.508H74.385V372.513z"
		/>
	<path fill="none" stroke="#000000" stroke-width="0.15" d="M74.385,149.012c41.09,0,74.386-33.365,74.386-74.515H74.385V149.012z"
		/>
	<path fill="none" stroke="#000000" stroke-width="0.15" d="M520.648,298.005c41.061,0,74.35-33.346,74.35-74.497h-74.35V298.005z"
		/>
	<path fill="none" stroke="#000000" stroke-width="0.15" d="M74.385,0h74.386c-41.086,0-74.386,33.357-74.386,74.497V0z"/>
	<path fill="none" stroke="#000000" stroke-width="0.15" d="M446.263,223.508h74.385c-41.096,0-74.385,33.357-74.385,74.497V223.508
		z"/>
	<path fill="none" stroke="#000000" stroke-width="0.15" d="M371.896,372.513h74.367c-41.061,0-74.367,33.362-74.367,74.504V372.513
		z"/>
	<path fill="none" stroke="#000000" stroke-width="0.15" d="M297.503,149.012h74.393c-41.078,0-74.393,33.346-74.393,74.497V149.012
		z"/>
	<path fill="none" stroke="#000000" stroke-width="0.15" d="M148.771,0c41.06,0,74.366,33.357,74.366,74.497h-74.366V0z"/>
	<path fill="none" stroke="#000000" stroke-width="0.15" d="M520.648,447.017c41.061,0,74.35,33.346,74.35,74.504h-74.35V447.017z"
		/>
	<path fill="none" stroke="#000000" stroke-width="0.15" d="M74.385,372.513c41.09,0,74.386,33.362,74.386,74.504H74.385V372.513z"
		/>
	<path fill="none" stroke="#000000" stroke-width="0.15" d="M148.771,372.513c41.06,0,74.366,33.362,74.366,74.504h-74.366V372.513z
		"/>
	<path fill="none" stroke="#000000" stroke-width="0.15" d="M297.503,298.005c41.088,0,74.393,33.365,74.393,74.508h-74.393V298.005
		z"/>
	<path fill="none" stroke="#000000" stroke-width="0.15" d="M223.137,149.012c41.079,0,74.366,33.346,74.366,74.497h-74.366V149.012
		z"/>
	<path fill="none" stroke="#000000" stroke-width="0.15" d="M446.263,298.005c41.078,0,74.385,33.365,74.385,74.508h-74.385V298.005
		z"/>
	<path fill="none" stroke="#000000" stroke-width="0.15" d="M297.503,0c41.088,0,74.393,33.357,74.393,74.497h-74.393V0z"/>
	<path fill="none" stroke="#000000" stroke-width="0.15" d="M371.896,0c41.061,0,74.367,33.357,74.367,74.497h-74.367V0z"/>
	<path fill="none" stroke="#000000" stroke-width="0.15" d="M74.385,521.521c-41.06,0-74.367-33.354-74.367-74.504h74.367V521.521z"
		/>
	<path fill="none" stroke="#000000" stroke-width="0.15" d="M0.019,372.513c41.079,0,74.367,33.362,74.367,74.504H0.019V372.513z"/>
	<path fill="none" stroke="#000000" stroke-width="0.15" d="M74.385,149.012c-41.06,0-74.367-33.365-74.367-74.515h74.367V149.012z"
		/>
	<path fill="none" stroke="#000000" stroke-width="0.15" d="M446.263,447.017c41.078,0,74.385,33.346,74.385,74.504h-74.385V447.017
		z"/>
	<path fill="none" stroke="#000000" stroke-width="0.15" d="M148.771,447.017c41.06,0,74.366,33.346,74.366,74.504h-74.366V447.017z
		"/>
	<path fill="none" stroke="#000000" stroke-width="0.15" d="M74.385,447.017c41.09,0,74.386,33.346,74.386,74.504H74.385V447.017z"
		/>
	<path fill="none" stroke="#000000" stroke-width="0.15" d="M223.137,74.497c41.079,0,74.366,33.364,74.366,74.515h-74.366V74.497z"
		/>
	<path fill="none" stroke="#000000" stroke-width="0.15" d="M148.771,74.497c41.06,0,74.366,33.364,74.366,74.515h-74.366V74.497z"
		/>
	<path fill="none" stroke="#000000" stroke-width="0.15" d="M520.648,372.513c41.061,0,74.35,33.362,74.35,74.504h-74.35V372.513z"
		/>
	<path fill="none" stroke="#000000" stroke-width="0.15" d="M148.751,447.027c-41.067,0-74.366,33.324-74.366,74.479h74.366V447.027
		z"/>
	<path fill="none" stroke="#000000" stroke-width="0.15" d="M148.751,223.482c-41.067,0-74.366,33.384-74.366,74.516h74.366V223.482
		z"/>
	<path fill="none" stroke="#000000" stroke-width="0.15" d="M74.385,149.004c-41.079,0-74.367,33.346-74.367,74.478h74.367V149.004z
		"/>
	<path fill="none" stroke="#000000" stroke-width="0.15" d="M74.385-0.011c-41.079,0-74.367,33.346-74.367,74.516h74.367V-0.011z"/>
	<path fill="none" stroke="#000000" stroke-width="0.15" d="M520.623,74.504c-41.068,0-74.375,33.331-74.375,74.5h74.375V74.504z"/>
	<path fill="none" stroke="#000000" stroke-width="0.15" d="M371.888,447.027h74.359c-41.07,0-74.359-33.383-74.359-74.514V447.027z
		"/>
	<path fill="none" stroke="#000000" stroke-width="0.15" d="M223.137,447.027h74.366c-41.079,0-74.366-33.383-74.366-74.514V447.027
		z"/>
	<path fill="none" stroke="#000000" stroke-width="0.15" d="M520.623,149.004H595c-41.07,0-74.377-33.369-74.377-74.5V149.004z"/>
	<path fill="none" stroke="#000000" stroke-width="0.15" d="M148.751,447.027H74.385c41.079,0,74.366-33.383,74.366-74.514V447.027z
		"/>
	<path fill="none" stroke="#000000" stroke-width="0.15" d="M148.751,149.004H74.385c41.079,0,74.366-33.369,74.366-74.5V149.004z"
		/>
	<path fill="none" stroke="#000000" stroke-width="0.15" d="M520.623,297.998h-74.375c41.086,0,74.375-33.346,74.375-74.516V297.998
		z"/>
	<path fill="none" stroke="#000000" stroke-width="0.15" d="M520.623,223.482h-74.375c41.086,0,74.375-33.331,74.375-74.478V223.482
		z"/>
	<path fill="none" stroke="#000000" stroke-width="0.15" d="M297.503,223.482h-74.366c41.06,0,74.366-33.331,74.366-74.478V223.482z
		"/>
	<path fill="none" stroke="#000000" stroke-width="0.15" d="M371.888,297.998h-74.385c41.08,0,74.385-33.346,74.385-74.516V297.998z
		"/>
	<path fill="none" stroke="#000000" stroke-width="0.15" d="M371.888,372.513h-74.385c41.08,0,74.385-33.346,74.385-74.515V372.513z
		"/>
	<path fill="none" stroke="#000000" stroke-width="0.15" d="M223.137,372.513h-74.386c41.079,0,74.386-33.346,74.386-74.515V372.513
		z"/>
	<path fill="none" stroke="#000000" stroke-width="0.15" d="M446.248,74.504h-74.359c41.061,0,74.359-33.384,74.359-74.516V74.504z"
		/>
	<path fill="none" stroke="#000000" stroke-width="0.15" d="M446.248,149.004h-74.359c41.061,0,74.359-33.369,74.359-74.5V149.004z"
		/>
	<path fill="none" stroke="#000000" stroke-width="0.15" d="M595,223.482h-74.377c41.07,0,74.377-33.331,74.377-74.478V223.482z"/>
	<path fill="none" stroke="#000000" stroke-width="0.15" d="M595,74.504h-74.377C561.693,74.504,595,41.12,595-0.011V74.504z"/>
	<path fill="none" stroke="#000000" stroke-width="0.15" d="M520.623,372.513H595c-41.07,0-74.377,33.346-74.377,74.514V372.513z"/>
	<path fill="none" stroke="#000000" stroke-width="0.15" d="M0.019,372.513h74.367c-41.079,0-74.367,33.346-74.367,74.514V372.513z"
		/>
	<path fill="none" stroke="#000000" stroke-width="0.15" d="M0.019,447.027h74.367c-41.079,0-74.367,33.324-74.367,74.479V447.027z"
		/>
	<path fill="none" stroke="#000000" stroke-width="0.15" d="M520.623,223.482H595c-41.07,0-74.377,33.384-74.377,74.516V223.482z"/>
	<path fill="none" stroke="#000000" stroke-width="0.15" d="M223.137,297.998h74.366c-41.079,0-74.366,33.36-74.366,74.515V297.998z
		"/>
	<path fill="none" stroke="#000000" stroke-width="0.15" d="M297.503,521.505c41.08,0,74.385-33.346,74.385-74.479h-74.385V521.505z
		"/>
	<path fill="none" stroke="#000000" stroke-width="0.15" d="M74.385,74.504c41.079,0,74.366-33.384,74.366-74.516H74.385V74.504z"/>
	<path fill="none" stroke="#000000" stroke-width="0.15" d="M371.888,372.513c41.061,0,74.359-33.346,74.359-74.515h-74.359V372.513
		z"/>
	<path fill="none" stroke="#000000" stroke-width="0.15" d="M446.248,447.027h74.375c-41.068,0-74.375,33.324-74.375,74.479V447.027
		z"/>
	<path fill="none" stroke="#000000" stroke-width="0.15" d="M0.019,297.998h74.367c-41.079,0-74.367,33.36-74.367,74.515V297.998z"
		/>
	<path fill="none" stroke="#000000" stroke-width="0.15" d="M0.019,223.482h74.367c-41.079,0-74.367,33.384-74.367,74.516V223.482z"
		/>
	<path fill="none" stroke="#000000" stroke-width="0.15" d="M520.623,297.998H595c-41.07,0-74.377,33.36-74.377,74.515V297.998z"/>
	<path fill="none" stroke="#000000" stroke-width="0.15" d="M446.248-0.011h74.375c-41.068,0-74.375,33.346-74.375,74.516V-0.011z"
		/>
	<path fill="none" stroke="#000000" stroke-width="0.15" d="M148.751,149.004h74.386c-41.079,0-74.386,33.346-74.386,74.478V149.004
		z"/>
	<path fill="none" stroke="#000000" stroke-width="0.15" d="M520.623,447.027c41.07,0,74.377,33.324,74.377,74.479h-74.377V447.027z
		"/>
	<path fill="none" stroke="#000000" stroke-width="0.15" d="M446.248,297.998c41.086,0,74.375,33.36,74.375,74.515h-74.375V297.998z
		"/>
	<path fill="none" stroke="#000000" stroke-width="0.15" d="M371.888,149.004c41.061,0,74.359,33.346,74.359,74.478h-74.359V149.004
		z"/>
	<path fill="none" stroke="#000000" stroke-width="0.15" d="M148.751,223.482c41.079,0,74.386,33.384,74.386,74.516h-74.386V223.482
		z"/>
	<path fill="none" stroke="#000000" stroke-width="0.15" d="M223.137,74.504c41.06,0,74.366,33.331,74.366,74.5h-74.366V74.504z"/>
	<path fill="none" stroke="#000000" stroke-width="0.15" d="M223.137-0.011c41.06,0,74.366,33.346,74.366,74.516h-74.366V-0.011z"/>
	<path fill="none" stroke="#000000" stroke-width="0.15" d="M148.751-0.011c41.079,0,74.386,33.346,74.386,74.516h-74.386V-0.011z"
		/>
	<path fill="none" stroke="#000000" stroke-width="0.15" d="M297.503,372.513c41.08,0,74.385,33.346,74.385,74.514h-74.385V372.513z
		"/>
	<path fill="none" stroke="#000000" stroke-width="0.15" d="M297.503,521.505c-41.079,0-74.366-33.346-74.366-74.479h74.366V521.505
		z"/>
	<path fill="none" stroke="#000000" stroke-width="0.15" d="M371.888,447.027c41.061,0,74.359,33.324,74.359,74.479h-74.359V447.027
		z"/>
	<path fill="none" stroke="#000000" stroke-width="0.15" d="M74.385,297.998c41.079,0,74.366,33.36,74.366,74.515H74.385V297.998z"
		/>
	<path fill="none" stroke="#000000" stroke-width="0.15" d="M74.385,149.004c-41.079,0-74.367-33.369-74.367-74.5h74.367V149.004z"
		/>
	<path fill="none" stroke="#000000" stroke-width="0.15" d="M371.888,223.482c-41.086,0-74.385-33.331-74.385-74.478h74.385V223.482
		z"/>
	<path fill="none" stroke="#000000" stroke-width="0.15" d="M223.137,223.482c41.06,0,74.366,33.384,74.366,74.516h-74.366V223.482z
		"/>
	<path fill="none" stroke="#000000" stroke-width="0.15" d="M371.888,223.482c41.061,0,74.359,33.384,74.359,74.516h-74.359V223.482
		z"/>
	<path fill="none" stroke="#000000" stroke-width="0.15" d="M297.503,74.504c41.08,0,74.385,33.331,74.385,74.5h-74.385V74.504z"/>
	<path fill="none" stroke="#000000" stroke-width="0.15" d="M223.137,149.004c-41.079,0-74.386-33.369-74.386-74.5h74.386V149.004z"
		/>
	<path fill="none" stroke="#000000" stroke-width="0.15" d="M595,372.513c-41.09,0-74.377,33.346-74.377,74.514H595V372.513z"/>
	<path fill="none" stroke="#000000" stroke-width="0.15" d="M297.503,372.513c-41.079,0-74.374,33.346-74.374,74.514h74.374V372.513
		z"/>
	<path fill="none" stroke="#000000" stroke-width="0.15" d="M371.871,447.027c-41.078,0-74.367,33.324-74.367,74.479h74.367V447.027
		z"/>
	<path fill="none" stroke="#000000" stroke-width="0.15" d="M74.378,447.027C33.306,447.027,0,480.351,0,521.505h74.378V447.027z"/>
	<path fill="none" stroke="#000000" stroke-width="0.15" d="M297.503-0.011c-41.079,0-74.374,33.346-74.374,74.516h74.374V-0.011z"
		/>
	<path fill="none" stroke="#000000" stroke-width="0.15" d="M148.751,223.482c-41.067,0-74.374,33.384-74.374,74.516h74.374V223.482
		z"/>
	<path fill="none" stroke="#000000" stroke-width="0.15" d="M223.13,297.998c-41.091,0-74.378,33.36-74.378,74.515h74.378V297.998z"
		/>
	<path fill="none" stroke="#000000" stroke-width="0.15" d="M446.248,149.004c-41.07,0-74.377,33.346-74.377,74.478h74.377V149.004z
		"/>
	<path fill="none" stroke="#000000" stroke-width="0.15" d="M520.623-0.011c-41.078,0-74.375,33.346-74.375,74.516h74.375V-0.011z"
		/>
	<path fill="none" stroke="#000000" stroke-width="0.15" d="M223.13,521.505h74.374c-41.079,0-74.374-33.346-74.374-74.479V521.505z
		"/>
	<path fill="none" stroke="#000000" stroke-width="0.15" d="M297.503,372.513h74.367c-41.078,0-74.367-33.346-74.367-74.515V372.513
		z"/>
	<path fill="none" stroke="#000000" stroke-width="0.15" d="M74.378,223.482h74.374c-41.067,0-74.374-33.331-74.374-74.478V223.482z
		"/>
	<path fill="none" stroke="#000000" stroke-width="0.15" d="M148.751,74.504h74.378c-41.091,0-74.378-33.384-74.378-74.516V74.504z"
		/>
	<path fill="none" stroke="#000000" stroke-width="0.15" d="M371.871,149.004h74.377c-41.07,0-74.377-33.369-74.377-74.5V149.004z"
		/>
	<path fill="none" stroke="#000000" stroke-width="0.15" d="M520.623,447.027h-74.375c41.068,0,74.375-33.383,74.375-74.514V447.027
		z"/>
	<path fill="none" stroke="#000000" stroke-width="0.15" d="M223.13,447.027h-74.378c41.071,0,74.378-33.383,74.378-74.514V447.027z
		"/>
	<path fill="none" stroke="#000000" stroke-width="0.15" d="M74.378,74.504H0c41.079,0,74.378-33.384,74.378-74.516V74.504z"/>
	<path fill="none" stroke="#000000" stroke-width="0.15" d="M148.751,74.504H74.378c41.067,0,74.374-33.384,74.374-74.516V74.504z"
		/>
	<path fill="none" stroke="#000000" stroke-width="0.15" d="M223.13,149.004h-74.378c41.071,0,74.378-33.369,74.378-74.5V149.004z"
		/>
	<path fill="none" stroke="#000000" stroke-width="0.15" d="M595,372.513h-74.377c41.07,0,74.377-33.346,74.377-74.515V372.513z"/>
	<path fill="none" stroke="#000000" stroke-width="0.15" d="M520.623,149.004h-74.375c41.068,0,74.375-33.369,74.375-74.5V149.004z"
		/>
	<path fill="none" stroke="#000000" stroke-width="0.15" d="M371.871,149.004h-74.367c41.072,0,74.367-33.369,74.367-74.5V149.004z"
		/>
	<path fill="none" stroke="#000000" stroke-width="0.15" d="M297.503-0.011h74.367c-41.078,0-74.367,33.346-74.367,74.516V-0.011z"
		/>
	<path fill="none" stroke="#000000" stroke-width="0.15" d="M0,149.004h74.378C33.306,149.004,0,182.351,0,223.482V149.004z"/>
	<path fill="none" stroke="#000000" stroke-width="0.15" d="M0,74.504h74.378C33.306,74.504,0,107.835,0,149.004V74.504z"/>
	<path fill="none" stroke="#000000" stroke-width="0.15" d="M0,447.027c41.079,0,74.378-33.383,74.378-74.514H0V447.027z"/>
	<path fill="none" stroke="#000000" stroke-width="0.15" d="M148.751,521.505c41.071,0,74.378-33.346,74.378-74.479h-74.378V521.505
		z"/>
	<path fill="none" stroke="#000000" stroke-width="0.15" d="M520.623,521.505c41.07,0,74.377-33.346,74.377-74.479h-74.377V521.505z
		"/>
	<path fill="none" stroke="#000000" stroke-width="0.15" d="M223.13,372.513c41.067,0,74.374-33.346,74.374-74.515H223.13V372.513z"
		/>
	<path fill="none" stroke="#000000" stroke-width="0.15" d="M0,372.513c41.079,0,74.378-33.346,74.378-74.515H0V372.513z"/>
	<path fill="none" stroke="#000000" stroke-width="0.15" d="M148.751,297.998c41.071,0,74.378-33.346,74.378-74.516h-74.378V297.998
		z"/>
	<path fill="none" stroke="#000000" stroke-width="0.15" d="M371.871,372.513c41.078,0,74.377-33.346,74.377-74.515h-74.377V372.513
		z"/>
	<path fill="none" stroke="#000000" stroke-width="0.15" d="M446.248,447.027h74.375c-41.078,0-74.375,33.324-74.375,74.479V447.027
		z"/>
	<path fill="none" stroke="#000000" stroke-width="0.15" d="M223.13,223.482h74.374c-41.079,0-74.374,33.384-74.374,74.516V223.482z
		"/>
	<path fill="none" stroke="#000000" stroke-width="0.15" d="M74.378,74.504h74.374c-41.067,0-74.374,33.331-74.374,74.5V74.504z"/>
	<path fill="none" stroke="#000000" stroke-width="0.15" d="M446.248,297.998h74.375c-41.078,0-74.375,33.36-74.375,74.515V297.998z
		"/>
	<path fill="none" stroke="#000000" stroke-width="0.15" d="M371.871,223.482h74.377c-41.07,0-74.377,33.384-74.377,74.516V223.482z
		"/>
	<path fill="none" stroke="#000000" stroke-width="0.15" d="M371.871,372.513c41.078,0,74.377,33.346,74.377,74.514h-74.377V372.513
		z"/>
	<path fill="none" stroke="#000000" stroke-width="0.15" d="M297.503,372.513c41.072,0,74.367,33.346,74.367,74.514h-74.367V372.513
		z"/>
	<path fill="none" stroke="#000000" stroke-width="0.15" d="M74.378,447.027c41.067,0,74.374,33.324,74.374,74.479H74.378V447.027z"
		/>
	<path fill="none" stroke="#000000" stroke-width="0.15" d="M371.871,447.027c41.078,0,74.377,33.324,74.377,74.479h-74.377V447.027
		z"/>
	<path fill="none" stroke="#000000" stroke-width="0.15" d="M520.623,74.504c41.07,0,74.377,33.331,74.377,74.5h-74.377V74.504z"/>
	<path fill="none" stroke="#000000" stroke-width="0.15" d="M148.751,447.027c-41.067,0-74.374-33.383-74.374-74.514h74.374V447.027
		z"/>
	<path fill="none" stroke="#000000" stroke-width="0.15" d="M223.13,74.504c41.067,0,74.374,33.331,74.374,74.5H223.13V74.504z"/>
	<path fill="none" stroke="#000000" stroke-width="0.15" d="M371.871,223.482c-41.078,0-74.367-33.331-74.367-74.478h74.367V223.482
		z"/>
	<path fill="none" stroke="#000000" stroke-width="0.15" d="M520.623,149.004c41.07,0,74.377,33.346,74.377,74.478h-74.377V149.004z
		"/>
	<path fill="none" stroke="#000000" stroke-width="0.15" d="M520.623,223.482c-41.078,0-74.375-33.331-74.375-74.478h74.375V223.482
		z"/>
	<path fill="none" stroke="#000000" stroke-width="0.15" d="M520.623,297.998c-41.078,0-74.375-33.346-74.375-74.516h74.375V297.998
		z"/>
	<path fill="none" stroke="#000000" stroke-width="0.15" d="M520.623,223.482c41.07,0,74.377,33.384,74.377,74.516h-74.377V223.482z
		"/>
	<path fill="none" stroke="#000000" stroke-width="0.15" d="M446.248,74.504c-41.07,0-74.377-33.384-74.377-74.516h74.377V74.504z"
		/>
	<path fill="none" stroke="#000000" stroke-width="0.15" d="M520.623-0.011c41.07,0,74.377,33.346,74.377,74.516h-74.377V-0.011z"/>
</g>
</svg>
