<?xml version="1.0" encoding="utf-8"?>
<!-- Generator: Adobe Illustrator 16.0.0, SVG Export Plug-In . SVG Version: 6.00 Build 0)  -->
<!DOCTYPE svg PUBLIC "-//W3C//DTD SVG 1.1//EN" "http://www.w3.org/Graphics/SVG/1.1/DTD/svg11.dtd">
<svg version="1.1" xmlns="http://www.w3.org/2000/svg" xmlns:xlink="http://www.w3.org/1999/xlink" x="0px" y="0px"
	  viewBox="0 0 459.764 402.291" enable-background="new 0 0 459.764 402.291"
	 xml:space="preserve">
<g id="Layer_1">
</g>
<g id="_x31__x5F_SHAPE">
	<path fill="none" stroke="#000000" stroke-width="0.15" d="M114.926,344.839c-31.737,0-57.466,25.707-57.466,57.451h57.466V344.839
		z"/>
	<path fill="none" stroke="#000000" stroke-width="0.15" d="M114.926,172.397c-31.737,0-57.466,25.752-57.466,57.48h57.466V172.397z
		"/>
	<path fill="none" stroke="#000000" stroke-width="0.15" d="M57.46,114.946c-31.743,0-57.466,25.723-57.466,57.451H57.46V114.946z"
		/>
	<path fill="none" stroke="#000000" stroke-width="0.15" d="M57.46,0C25.717,0-0.006,25.723-0.006,57.48H57.46V0z"/>
	<path fill="none" stroke="#000000" stroke-width="0.15" d="M402.284,57.48c-31.737,0-57.475,25.708-57.475,57.466h57.475V57.48z"/>
	<path fill="none" stroke="#000000" stroke-width="0.15" d="M287.352,344.839h57.457c-31.734,0-57.457-25.752-57.457-57.48V344.839z
		"/>
	<path fill="none" stroke="#000000" stroke-width="0.15" d="M172.406,344.839h57.466c-31.744,0-57.466-25.752-57.466-57.48V344.839z
		"/>
	<path fill="none" stroke="#000000" stroke-width="0.15" d="M402.284,114.946h57.472c-31.734,0-57.472-25.737-57.472-57.466V114.946
		z"/>
	<path fill="none" stroke="#000000" stroke-width="0.15" d="M114.926,344.839H57.46c31.743,0,57.466-25.752,57.466-57.48V344.839z"
		/>
	<path fill="none" stroke="#000000" stroke-width="0.15" d="M114.926,114.946H57.46c31.743,0,57.466-25.737,57.466-57.466V114.946z"
		/>
	<path fill="none" stroke="#000000" stroke-width="0.15" d="M402.284,229.878h-57.475c31.752,0,57.475-25.723,57.475-57.48V229.878z
		"/>
	<path fill="none" stroke="#000000" stroke-width="0.15" d="M402.284,172.397h-57.475c31.752,0,57.475-25.708,57.475-57.451V172.397
		z"/>
	<path fill="none" stroke="#000000" stroke-width="0.15" d="M229.873,172.397h-57.466c31.729,0,57.466-25.708,57.466-57.451V172.397
		z"/>
	<path fill="none" stroke="#000000" stroke-width="0.15" d="M287.352,229.878h-57.479c31.742,0,57.479-25.723,57.479-57.48V229.878z
		"/>
	<path fill="none" stroke="#000000" stroke-width="0.15" d="M287.352,287.359h-57.479c31.742,0,57.479-25.723,57.479-57.481V287.359
		z"/>
	<path fill="none" stroke="#000000" stroke-width="0.15" d="M172.406,287.359h-57.48c31.743,0,57.48-25.723,57.48-57.481V287.359z"
		/>
	<path fill="none" stroke="#000000" stroke-width="0.15" d="M344.809,57.48h-57.457c31.729,0,57.457-25.752,57.457-57.48V57.48z"/>
	<path fill="none" stroke="#000000" stroke-width="0.15" d="M344.809,114.946h-57.457c31.729,0,57.457-25.737,57.457-57.466V114.946
		z"/>
	<path fill="none" stroke="#000000" stroke-width="0.15" d="M459.755,172.397h-57.472c31.734,0,57.472-25.708,57.472-57.451V172.397
		z"/>
	<path fill="none" stroke="#000000" stroke-width="0.15" d="M459.755,57.48h-57.472c31.734,0,57.472-25.752,57.472-57.48V57.48z"/>
	<path fill="none" stroke="#000000" stroke-width="0.15" d="M402.284,287.359h57.472c-31.734,0-57.472,25.723-57.472,57.48V287.359z
		"/>
	<path fill="none" stroke="#000000" stroke-width="0.15" d="M-0.006,287.359H57.46c-31.743,0-57.466,25.723-57.466,57.48V287.359z"
		/>
	<path fill="none" stroke="#000000" stroke-width="0.15" d="M-0.006,344.839H57.46c-31.743,0-57.466,25.707-57.466,57.451V344.839z"
		/>
	<path fill="none" stroke="#000000" stroke-width="0.15" d="M402.284,172.397h57.472c-31.734,0-57.472,25.752-57.472,57.48V172.397z
		"/>
	<path fill="none" stroke="#000000" stroke-width="0.15" d="M172.406,229.878h57.466c-31.744,0-57.466,25.737-57.466,57.481V229.878
		z"/>
	<path fill="none" stroke="#000000" stroke-width="0.15" d="M229.873,402.291c31.742,0,57.479-25.723,57.479-57.451h-57.479V402.291
		z"/>
	<path fill="none" stroke="#000000" stroke-width="0.15" d="M57.46,57.48c31.743,0,57.466-25.752,57.466-57.48H57.46V57.48z"/>
	<path fill="none" stroke="#000000" stroke-width="0.15" d="M287.352,287.359c31.729,0,57.457-25.723,57.457-57.481h-57.457V287.359
		z"/>
	<path fill="none" stroke="#000000" stroke-width="0.15" d="M344.809,344.839h57.475c-31.737,0-57.475,25.707-57.475,57.451V344.839
		z"/>
	<path fill="none" stroke="#000000" stroke-width="0.15" d="M-0.006,229.878H57.46c-31.743,0-57.466,25.737-57.466,57.481V229.878z"
		/>
	<path fill="none" stroke="#000000" stroke-width="0.15" d="M-0.006,172.397H57.46c-31.743,0-57.466,25.752-57.466,57.48V172.397z"
		/>
	<path fill="none" stroke="#000000" stroke-width="0.15" d="M402.284,229.878h57.472c-31.734,0-57.472,25.737-57.472,57.481V229.878
		z"/>
	<path fill="none" stroke="#000000" stroke-width="0.15" d="M344.809,0h57.475c-31.737,0-57.475,25.723-57.475,57.48V0z"/>
	<path fill="none" stroke="#000000" stroke-width="0.15" d="M114.926,114.946h57.48c-31.743,0-57.48,25.723-57.48,57.451V114.946z"
		/>
	<path fill="none" stroke="#000000" stroke-width="0.15" d="M402.284,344.839c31.734,0,57.472,25.707,57.472,57.451h-57.472V344.839
		z"/>
	<path fill="none" stroke="#000000" stroke-width="0.15" d="M344.809,229.878c31.752,0,57.475,25.737,57.475,57.481h-57.475V229.878
		z"/>
	<path fill="none" stroke="#000000" stroke-width="0.15" d="M287.352,114.946c31.729,0,57.457,25.723,57.457,57.451h-57.457V114.946
		z"/>
	<path fill="none" stroke="#000000" stroke-width="0.15" d="M114.926,172.397c31.743,0,57.48,25.752,57.48,57.48h-57.48V172.397z"/>
	<path fill="none" stroke="#000000" stroke-width="0.15" d="M172.406,57.48c31.729,0,57.466,25.708,57.466,57.466h-57.466V57.48z"/>
	<path fill="none" stroke="#000000" stroke-width="0.15" d="M172.406,0c31.729,0,57.466,25.723,57.466,57.48h-57.466V0z"/>
	<path fill="none" stroke="#000000" stroke-width="0.15" d="M114.926,0c31.743,0,57.48,25.723,57.48,57.48h-57.48V0z"/>
	<path fill="none" stroke="#000000" stroke-width="0.15" d="M229.873,287.359c31.742,0,57.479,25.723,57.479,57.48h-57.479V287.359z
		"/>
	<path fill="none" stroke="#000000" stroke-width="0.15" d="M229.873,402.291c-31.744,0-57.466-25.723-57.466-57.451h57.466V402.291
		z"/>
	<path fill="none" stroke="#000000" stroke-width="0.15" d="M287.352,344.839c31.729,0,57.457,25.707,57.457,57.451h-57.457V344.839
		z"/>
	<path fill="none" stroke="#000000" stroke-width="0.15" d="M57.46,229.878c31.743,0,57.466,25.737,57.466,57.481H57.46V229.878z"/>
	<path fill="none" stroke="#000000" stroke-width="0.15" d="M57.46,114.946c-31.743,0-57.466-25.737-57.466-57.466H57.46V114.946z"
		/>
	<path fill="none" stroke="#000000" stroke-width="0.15" d="M287.352,172.397c-31.752,0-57.479-25.708-57.479-57.451h57.479V172.397
		z"/>
	<path fill="none" stroke="#000000" stroke-width="0.15" d="M172.406,172.397c31.729,0,57.466,25.752,57.466,57.48h-57.466V172.397z
		"/>
	<path fill="none" stroke="#000000" stroke-width="0.15" d="M287.352,172.397c31.729,0,57.457,25.752,57.457,57.48h-57.457V172.397z
		"/>
	<path fill="none" stroke="#000000" stroke-width="0.15" d="M229.873,57.48c31.742,0,57.479,25.708,57.479,57.466h-57.479V57.48z"/>
	<path fill="none" stroke="#000000" stroke-width="0.15" d="M172.406,114.946c-31.743,0-57.48-25.737-57.48-57.466h57.48V114.946z"
		/>
	<path fill="none" stroke="#000000" stroke-width="0.15" d="M459.764,287.359c-31.752,0-57.475,25.723-57.475,57.48h57.475V287.359z
		"/>
	<path fill="none" stroke="#000000" stroke-width="0.15" d="M229.878,287.359c-31.744,0-57.472,25.723-57.472,57.48h57.472V287.359z
		"/>
	<path fill="none" stroke="#000000" stroke-width="0.15" d="M287.343,344.839c-31.743,0-57.465,25.707-57.465,57.451h57.465V344.839
		z"/>
	<path fill="none" stroke="#000000" stroke-width="0.15" d="M57.46,344.839c-31.737,0-57.475,25.707-57.475,57.451H57.46V344.839z"
		/>
	<path fill="none" stroke="#000000" stroke-width="0.15" d="M229.878,0c-31.744,0-57.472,25.723-57.472,57.48h57.472V0z"/>
	<path fill="none" stroke="#000000" stroke-width="0.15" d="M114.932,172.397c-31.734,0-57.472,25.752-57.472,57.48h57.472V172.397z
		"/>
	<path fill="none" stroke="#000000" stroke-width="0.15" d="M172.406,229.878c-31.752,0-57.475,25.737-57.475,57.481h57.475V229.878
		z"/>
	<path fill="none" stroke="#000000" stroke-width="0.15" d="M344.818,114.946c-31.737,0-57.475,25.723-57.475,57.451h57.475V114.946
		z"/>
	<path fill="none" stroke="#000000" stroke-width="0.15" d="M402.29,0c-31.743,0-57.472,25.723-57.472,57.48h57.472V0z"/>
	<path fill="none" stroke="#000000" stroke-width="0.15" d="M172.406,402.291h57.472c-31.744,0-57.472-25.723-57.472-57.451V402.291
		z"/>
	<path fill="none" stroke="#000000" stroke-width="0.15" d="M229.878,287.359h57.465c-31.743,0-57.465-25.723-57.465-57.481V287.359
		z"/>
	<path fill="none" stroke="#000000" stroke-width="0.15" d="M57.46,172.397h57.472c-31.734,0-57.472-25.708-57.472-57.451V172.397z"
		/>
	<path fill="none" stroke="#000000" stroke-width="0.15" d="M114.932,57.48h57.475c-31.752,0-57.475-25.752-57.475-57.48V57.48z"/>
	<path fill="none" stroke="#000000" stroke-width="0.15" d="M287.343,114.946h57.475c-31.737,0-57.475-25.737-57.475-57.466V114.946
		z"/>
	<path fill="none" stroke="#000000" stroke-width="0.15" d="M402.29,344.839h-57.472c31.734,0,57.472-25.752,57.472-57.48V344.839z"
		/>
	<path fill="none" stroke="#000000" stroke-width="0.15" d="M172.406,344.839h-57.475c31.737,0,57.475-25.752,57.475-57.48V344.839z
		"/>
	<path fill="none" stroke="#000000" stroke-width="0.15" d="M57.46,57.48H-0.015C31.729,57.48,57.46,31.729,57.46,0V57.48z"/>
	<path fill="none" stroke="#000000" stroke-width="0.15" d="M114.932,57.48H57.46c31.734,0,57.472-25.752,57.472-57.48V57.48z"/>
	<path fill="none" stroke="#000000" stroke-width="0.15" d="M172.406,114.946h-57.475c31.737,0,57.475-25.737,57.475-57.466V114.946
		z"/>
	<path fill="none" stroke="#000000" stroke-width="0.15" d="M459.764,287.359H402.29c31.737,0,57.475-25.723,57.475-57.481V287.359z
		"/>
	<path fill="none" stroke="#000000" stroke-width="0.15" d="M402.29,114.946h-57.472c31.734,0,57.472-25.737,57.472-57.466V114.946z
		"/>
	<path fill="none" stroke="#000000" stroke-width="0.15" d="M287.343,114.946h-57.465c31.736,0,57.465-25.737,57.465-57.466V114.946
		z"/>
	<path fill="none" stroke="#000000" stroke-width="0.15" d="M229.878,0h57.465c-31.743,0-57.465,25.723-57.465,57.48V0z"/>
	<path fill="none" stroke="#000000" stroke-width="0.15" d="M-0.015,114.946H57.46c-31.737,0-57.475,25.723-57.475,57.451V114.946z"
		/>
	<path fill="none" stroke="#000000" stroke-width="0.15" d="M-0.015,57.48H57.46c-31.737,0-57.475,25.708-57.475,57.466V57.48z"/>
	<path fill="none" stroke="#000000" stroke-width="0.15" d="M-0.015,344.839c31.743,0,57.475-25.752,57.475-57.48H-0.015V344.839z"
		/>
	<path fill="none" stroke="#000000" stroke-width="0.15" d="M114.932,402.291c31.737,0,57.475-25.723,57.475-57.451h-57.475V402.291
		z"/>
	<path fill="none" stroke="#000000" stroke-width="0.15" d="M402.29,402.291c31.737,0,57.475-25.723,57.475-57.451H402.29V402.291z"
		/>
	<path fill="none" stroke="#000000" stroke-width="0.15" d="M172.406,287.359c31.734,0,57.472-25.723,57.472-57.481h-57.472V287.359
		z"/>
	<path fill="none" stroke="#000000" stroke-width="0.15" d="M-0.015,287.359c31.743,0,57.475-25.723,57.475-57.481H-0.015V287.359z"
		/>
	<path fill="none" stroke="#000000" stroke-width="0.15" d="M114.932,229.878c31.737,0,57.475-25.723,57.475-57.48h-57.475V229.878z
		"/>
	<path fill="none" stroke="#000000" stroke-width="0.15" d="M287.343,287.359c31.743,0,57.475-25.723,57.475-57.481h-57.475V287.359
		z"/>
	<path fill="none" stroke="#000000" stroke-width="0.15" d="M344.818,344.839h57.472c-31.743,0-57.472,25.707-57.472,57.451V344.839
		z"/>
	<path fill="none" stroke="#000000" stroke-width="0.15" d="M172.406,172.397h57.472c-31.744,0-57.472,25.752-57.472,57.48V172.397z
		"/>
	<path fill="none" stroke="#000000" stroke-width="0.15" d="M57.46,57.48h57.472c-31.734,0-57.472,25.708-57.472,57.466V57.48z"/>
	<path fill="none" stroke="#000000" stroke-width="0.15" d="M344.818,229.878h57.472c-31.743,0-57.472,25.737-57.472,57.481V229.878
		z"/>
	<path fill="none" stroke="#000000" stroke-width="0.15" d="M287.343,172.397h57.475c-31.737,0-57.475,25.752-57.475,57.48V172.397z
		"/>
	<path fill="none" stroke="#000000" stroke-width="0.15" d="M287.343,287.359c31.743,0,57.475,25.723,57.475,57.48h-57.475V287.359z
		"/>
	<path fill="none" stroke="#000000" stroke-width="0.15" d="M229.878,287.359c31.736,0,57.465,25.723,57.465,57.48h-57.465V287.359z
		"/>
	<path fill="none" stroke="#000000" stroke-width="0.15" d="M57.46,344.839c31.734,0,57.472,25.707,57.472,57.451H57.46V344.839z"/>
	<path fill="none" stroke="#000000" stroke-width="0.15" d="M287.343,344.839c31.743,0,57.475,25.707,57.475,57.451h-57.475V344.839
		z"/>
	<path fill="none" stroke="#000000" stroke-width="0.15" d="M402.29,57.48c31.737,0,57.475,25.708,57.475,57.466H402.29V57.48z"/>
	<path fill="none" stroke="#000000" stroke-width="0.15" d="M114.932,344.839c-31.734,0-57.472-25.752-57.472-57.48h57.472V344.839z
		"/>
	<path fill="none" stroke="#000000" stroke-width="0.15" d="M172.406,57.48c31.734,0,57.472,25.708,57.472,57.466h-57.472V57.48z"/>
	<path fill="none" stroke="#000000" stroke-width="0.15" d="M287.343,172.397c-31.743,0-57.465-25.708-57.465-57.451h57.465V172.397
		z"/>
	<path fill="none" stroke="#000000" stroke-width="0.15" d="M402.29,114.946c31.737,0,57.475,25.723,57.475,57.451H402.29V114.946z"
		/>
	<path fill="none" stroke="#000000" stroke-width="0.15" d="M402.29,172.397c-31.743,0-57.472-25.708-57.472-57.451h57.472V172.397z
		"/>
	<path fill="none" stroke="#000000" stroke-width="0.15" d="M402.29,229.878c-31.743,0-57.472-25.723-57.472-57.48h57.472V229.878z"
		/>
	<path fill="none" stroke="#000000" stroke-width="0.15" d="M402.29,172.397c31.737,0,57.475,25.752,57.475,57.48H402.29V172.397z"
		/>
	<path fill="none" stroke="#000000" stroke-width="0.15" d="M344.818,57.48c-31.737,0-57.475-25.752-57.475-57.48h57.475V57.48z"/>
	<path fill="none" stroke="#000000" stroke-width="0.15" d="M402.29,0c31.737,0,57.475,25.723,57.475,57.48H402.29V0z"/>
	<path fill="none" stroke="#000000" stroke-width="0.15" d="M57.466,287.359C25.731,287.359,0,313.082,0,344.839h57.466V287.359z"/>
	<path fill="none" stroke="#000000" stroke-width="0.15" d="M114.94,344.839c-31.743,0-57.475,25.707-57.475,57.451h57.475V344.839z
		"/>
	<path fill="none" stroke="#000000" stroke-width="0.15" d="M459.764,344.839c-31.737,0-57.475,25.707-57.475,57.451h57.475V344.839
		z"/>
	<path fill="none" stroke="#000000" stroke-width="0.15" d="M114.94,172.397c-31.743,0-57.475,25.752-57.475,57.48h57.475V172.397z"
		/>
	<path fill="none" stroke="#000000" stroke-width="0.15" d="M57.466,172.397C25.731,172.397,0,198.149,0,229.878h57.466V172.397z"/>
	<path fill="none" stroke="#000000" stroke-width="0.15" d="M229.878,172.397c-31.735,0-57.466,25.752-57.466,57.48h57.466V172.397z
		"/>
	<path fill="none" stroke="#000000" stroke-width="0.15" d="M172.412,172.397c-31.743,0-57.472,25.752-57.472,57.48h57.472V172.397z
		"/>
	<path fill="none" stroke="#000000" stroke-width="0.15" d="M287.352,229.878c-31.737,0-57.474,25.737-57.474,57.481h57.474V229.878
		z"/>
	<path fill="none" stroke="#000000" stroke-width="0.15" d="M344.824,229.878c-31.743,0-57.472,25.737-57.472,57.481h57.472V229.878
		z"/>
	<path fill="none" stroke="#000000" stroke-width="0.15" d="M287.352,172.397c-31.737,0-57.474,25.752-57.474,57.48h57.474V172.397z
		"/>
	<path fill="none" stroke="#000000" stroke-width="0.15" d="M287.352,57.48c-31.737,0-57.474,25.708-57.474,57.466h57.474V57.48z"/>
	<path fill="none" stroke="#000000" stroke-width="0.15" d="M344.824,57.48c-31.743,0-57.472,25.708-57.472,57.466h57.472V57.48z"/>
	<path fill="none" stroke="#000000" stroke-width="0.15" d="M344.824,0c-31.743,0-57.472,25.723-57.472,57.48h57.472V0z"/>
	<path fill="none" stroke="#000000" stroke-width="0.15" d="M402.29,344.839h57.475c-31.737,0-57.475-25.752-57.475-57.48V344.839z"
		/>
	<path fill="none" stroke="#000000" stroke-width="0.15" d="M287.352,402.291h57.472c-31.743,0-57.472-25.723-57.472-57.451V402.291
		z"/>
	<path fill="none" stroke="#000000" stroke-width="0.15" d="M57.466,287.359h57.475c-31.743,0-57.475-25.723-57.475-57.481V287.359z
		"/>
	<path fill="none" stroke="#000000" stroke-width="0.15" d="M0,57.48h57.466C25.731,57.48,0,31.729,0,0V57.48z"/>
	<path fill="none" stroke="#000000" stroke-width="0.15" d="M0,172.397h57.466C25.731,172.397,0,146.689,0,114.946V172.397z"/>
	<path fill="none" stroke="#000000" stroke-width="0.15" d="M287.352,229.878h57.472c-31.743,0-57.472-25.723-57.472-57.48V229.878z
		"/>
	<path fill="none" stroke="#000000" stroke-width="0.15" d="M287.352,344.839h-57.474c31.742,0,57.474-25.752,57.474-57.48V344.839z
		"/>
	<path fill="none" stroke="#000000" stroke-width="0.15" d="M114.94,344.839H57.466c31.743,0,57.475-25.752,57.475-57.48V344.839z"
		/>
	<path fill="none" stroke="#000000" stroke-width="0.15" d="M402.29,57.48h-57.466c31.743,0,57.466-25.752,57.466-57.48V57.48z"/>
	<path fill="none" stroke="#000000" stroke-width="0.15" d="M57.466,114.946H0c31.737,0,57.466-25.737,57.466-57.466V114.946z"/>
	<path fill="none" stroke="#000000" stroke-width="0.15" d="M57.466,287.359H0c31.737,0,57.466-25.723,57.466-57.481V287.359z"/>
	<path fill="none" stroke="#000000" stroke-width="0.15" d="M229.878,172.397h-57.466c31.737,0,57.466-25.708,57.466-57.451V172.397
		z"/>
	<path fill="none" stroke="#000000" stroke-width="0.15" d="M114.94,172.397H57.466c31.743,0,57.475-25.708,57.475-57.451V172.397z"
		/>
	<path fill="none" stroke="#000000" stroke-width="0.15" d="M459.764,229.878H402.29c31.743,0,57.475-25.723,57.475-57.48V229.878z"
		/>
	<path fill="none" stroke="#000000" stroke-width="0.15" d="M459.764,57.48H402.29c31.743,0,57.475-25.752,57.475-57.48V57.48z"/>
	<path fill="none" stroke="#000000" stroke-width="0.15" d="M114.94,344.839h57.472c-31.743,0-57.472,25.707-57.472,57.451V344.839z
		"/>
	<path fill="none" stroke="#000000" stroke-width="0.15" d="M344.824,57.48h57.466c-31.734,0-57.466,25.708-57.466,57.466V57.48z"/>
	<path fill="none" stroke="#000000" stroke-width="0.15" d="M172.412,0h57.466c-31.735,0-57.466,25.723-57.466,57.48V0z"/>
	<path fill="none" stroke="#000000" stroke-width="0.15" d="M344.824,402.291c31.743,0,57.466-25.723,57.466-57.451h-57.466V402.291
		z"/>
	<path fill="none" stroke="#000000" stroke-width="0.15" d="M344.824,287.359c31.743,0,57.466-25.723,57.466-57.481h-57.466V287.359
		z"/>
	<path fill="none" stroke="#000000" stroke-width="0.15" d="M287.352,287.359h57.472c-31.743,0-57.472,25.723-57.472,57.48V287.359z
		"/>
	<path fill="none" stroke="#000000" stroke-width="0.15" d="M114.94,287.359h57.472c-31.743,0-57.472,25.723-57.472,57.48V287.359z"
		/>
	<path fill="none" stroke="#000000" stroke-width="0.15" d="M172.412,344.839h57.466c-31.735,0-57.466,25.707-57.466,57.451V344.839
		z"/>
	<path fill="none" stroke="#000000" stroke-width="0.15" d="M344.824,172.397h57.466c-31.734,0-57.466,25.752-57.466,57.48V172.397z
		"/>
	<path fill="none" stroke="#000000" stroke-width="0.15" d="M114.94,57.48h57.472c-31.743,0-57.472,25.708-57.472,57.466V57.48z"/>
	<path fill="none" stroke="#000000" stroke-width="0.15" d="M114.94,0h57.472c-31.743,0-57.472,25.723-57.472,57.48V0z"/>
	<path fill="none" stroke="#000000" stroke-width="0.15" d="M402.29,114.946h57.475c-31.737,0-57.475,25.723-57.475,57.451V114.946z
		"/>
	<path fill="none" stroke="#000000" stroke-width="0.15" d="M344.824,287.359c31.743,0,57.466,25.723,57.466,57.48h-57.466V287.359z
		"/>
	<path fill="none" stroke="#000000" stroke-width="0.15" d="M229.878,114.946c31.742,0,57.474,25.723,57.474,57.451h-57.474V114.946
		z"/>
	<path fill="none" stroke="#000000" stroke-width="0.15" d="M229.878,0c31.742,0,57.474,25.723,57.474,57.48h-57.474V0z"/>
	<path fill="none" stroke="#000000" stroke-width="0.15" d="M172.412,287.359c31.737,0,57.466,25.723,57.466,57.48h-57.466V287.359z
		"/>
	<path fill="none" stroke="#000000" stroke-width="0.15" d="M57.466,402.291C25.731,402.291,0,376.568,0,344.839h57.466V402.291z"/>
	<path fill="none" stroke="#000000" stroke-width="0.15" d="M229.878,344.839c31.742,0,57.474,25.707,57.474,57.451h-57.474V344.839
		z"/>
	<path fill="none" stroke="#000000" stroke-width="0.15" d="M344.824,114.946c31.743,0,57.466,25.723,57.466,57.451h-57.466V114.946
		z"/>
	<path fill="none" stroke="#000000" stroke-width="0.15" d="M287.352,114.946c31.734,0,57.472,25.723,57.472,57.451h-57.472V114.946
		z"/>
	<path fill="none" stroke="#000000" stroke-width="0.15" d="M172.412,172.397c-31.743,0-57.472-25.708-57.472-57.451h57.472V172.397
		z"/>
	<path fill="none" stroke="#000000" stroke-width="0.15" d="M172.412,287.359c-31.743,0-57.472-25.723-57.472-57.481h57.472V287.359
		z"/>
	<path fill="none" stroke="#000000" stroke-width="0.15" d="M229.878,114.946c-31.735,0-57.466-25.737-57.466-57.466h57.466V114.946
		z"/>
	<path fill="none" stroke="#000000" stroke-width="0.15" d="M57.466,57.48c31.743,0,57.475,25.708,57.475,57.466H57.466V57.48z"/>
	<path fill="none" stroke="#000000" stroke-width="0.15" d="M57.466,0c31.743,0,57.475,25.723,57.475,57.48H57.466V0z"/>
	<path fill="none" stroke="#000000" stroke-width="0.15" d="M402.29,229.878c31.743,0,57.475,25.737,57.475,57.481H402.29V229.878z"
		/>
	<path fill="none" stroke="#000000" stroke-width="0.15" d="M459.764,114.946c-31.737,0-57.475-25.737-57.475-57.466h57.475V114.946
		z"/>
	<path fill="none" stroke="#000000" stroke-width="0.15" d="M114.94,344.839c-31.752,0-57.48,25.707-57.48,57.451h57.48V344.839z"/>
	<path fill="none" stroke="#000000" stroke-width="0.15" d="M114.94,57.48c-31.752,0-57.48,25.708-57.48,57.466h57.48V57.48z"/>
	<path fill="none" stroke="#000000" stroke-width="0.15" d="M172.397,57.48h57.481c-31.744,0-57.481-25.752-57.481-57.48V57.48z"/>
	<path fill="none" stroke="#000000" stroke-width="0.15" d="M57.46,229.878h57.48c-31.752,0-57.48-25.723-57.48-57.48V229.878z"/>
	<path fill="none" stroke="#000000" stroke-width="0.15" d="M344.818,287.359h57.472c-31.743,0-57.472-25.723-57.472-57.481V287.359
		z"/>
	<path fill="none" stroke="#000000" stroke-width="0.15" d="M344.818,229.878h57.472c-31.743,0-57.472-25.723-57.472-57.48V229.878z
		"/>
	<path fill="none" stroke="#000000" stroke-width="0.15" d="M287.343,229.878h57.475c-31.737,0-57.475-25.723-57.475-57.48V229.878z
		"/>
	<path fill="none" stroke="#000000" stroke-width="0.15" d="M344.818,114.946h57.472c-31.743,0-57.472-25.737-57.472-57.466V114.946
		z"/>
	<path fill="none" stroke="#000000" stroke-width="0.15" d="M287.343,114.946h57.475c-31.737,0-57.475-25.737-57.475-57.466V114.946
		z"/>
	<path fill="none" stroke="#000000" stroke-width="0.15" d="M459.755,344.839H402.29c31.737,0,57.466-25.752,57.466-57.48V344.839z"
		/>
	<path fill="none" stroke="#000000" stroke-width="0.15" d="M344.818,344.839h-57.475c31.743,0,57.475-25.752,57.475-57.48V344.839z
		"/>
	<path fill="none" stroke="#000000" stroke-width="0.15" d="M287.343,402.291h-57.465c31.742,0,57.465-25.723,57.465-57.451V402.291
		z"/>
	<path fill="none" stroke="#000000" stroke-width="0.15" d="M57.46,287.359H-0.015c31.758,0,57.475-25.723,57.475-57.481V287.359z"
		/>
	<path fill="none" stroke="#000000" stroke-width="0.15" d="M172.397,229.878H114.94c31.729,0,57.457-25.723,57.457-57.48V229.878z"
		/>
	<path fill="none" stroke="#000000" stroke-width="0.15" d="M172.397,287.359h57.481c-31.744,0-57.481,25.723-57.481,57.48V287.359z
		"/>
	<path fill="none" stroke="#000000" stroke-width="0.15" d="M-0.015,344.839H57.46c-31.737,0-57.475,25.707-57.475,57.451V344.839z"
		/>
	<path fill="none" stroke="#000000" stroke-width="0.15" d="M114.94,0h57.457c-31.729,0-57.457,25.723-57.457,57.48V0z"/>
	<path fill="none" stroke="#000000" stroke-width="0.15" d="M402.29,172.397h57.466c-31.743,0-57.466,25.752-57.466,57.48V172.397z"
		/>
	<path fill="none" stroke="#000000" stroke-width="0.15" d="M172.397,229.878c31.752,0,57.481-25.723,57.481-57.48h-57.481V229.878z
		"/>
	<path fill="none" stroke="#000000" stroke-width="0.15" d="M57.46,287.359c31.734,0,57.48-25.723,57.48-57.481H57.46V287.359z"/>
	<path fill="none" stroke="#000000" stroke-width="0.15" d="M229.878,57.48c31.742,0,57.465-25.752,57.465-57.48h-57.465V57.48z"/>
	<path fill="none" stroke="#000000" stroke-width="0.15" d="M402.29,57.48c31.737,0,57.466-25.752,57.466-57.48H402.29V57.48z"/>
	<path fill="none" stroke="#000000" stroke-width="0.15" d="M287.343,344.839h57.475c-31.737,0-57.475,25.707-57.475,57.451V344.839
		z"/>
	<path fill="none" stroke="#000000" stroke-width="0.15" d="M402.29,344.839h57.466c-31.743,0-57.466,25.707-57.466,57.451V344.839z
		"/>
	<path fill="none" stroke="#000000" stroke-width="0.15" d="M172.397,229.878h57.481c-31.744,0-57.481,25.737-57.481,57.481V229.878
		z"/>
	<path fill="none" stroke="#000000" stroke-width="0.15" d="M-0.015,172.397H57.46c-31.737,0-57.475,25.752-57.475,57.48V172.397z"
		/>
	<path fill="none" stroke="#000000" stroke-width="0.15" d="M114.94,229.878h57.457c-31.729,0-57.457,25.737-57.457,57.481V229.878z
		"/>
	<path fill="none" stroke="#000000" stroke-width="0.15" d="M114.94,57.48h57.457c-31.729,0-57.457,25.708-57.457,57.466V57.48z"/>
	<path fill="none" stroke="#000000" stroke-width="0.15" d="M402.29,114.946h57.466c-31.743,0-57.466,25.723-57.466,57.451V114.946z
		"/>
	<path fill="none" stroke="#000000" stroke-width="0.15" d="M287.343,114.946h57.475c-31.737,0-57.475,25.723-57.475,57.451V114.946
		z"/>
	<path fill="none" stroke="#000000" stroke-width="0.15" d="M402.29,229.878h57.466c-31.743,0-57.466,25.737-57.466,57.481V229.878z
		"/>
	<path fill="none" stroke="#000000" stroke-width="0.15" d="M344.818,0h57.472c-31.743,0-57.472,25.723-57.472,57.48V0z"/>
	<path fill="none" stroke="#000000" stroke-width="0.15" d="M57.46,287.359c31.734,0,57.48,25.723,57.48,57.48H57.46V287.359z"/>
	<path fill="none" stroke="#000000" stroke-width="0.15" d="M229.878,229.878c31.742,0,57.465,25.737,57.465,57.481h-57.465V229.878
		z"/>
	<path fill="none" stroke="#000000" stroke-width="0.15" d="M229.878,172.397c31.742,0,57.465,25.752,57.465,57.48h-57.465V172.397z
		"/>
	<path fill="none" stroke="#000000" stroke-width="0.15" d="M344.818,287.359c31.734,0,57.472,25.723,57.472,57.48h-57.472V287.359z
		"/>
	<path fill="none" stroke="#000000" stroke-width="0.15" d="M229.878,287.359c31.742,0,57.465,25.723,57.465,57.48h-57.465V287.359z
		"/>
	<path fill="none" stroke="#000000" stroke-width="0.15" d="M172.397,344.839c-31.729,0-57.457-25.752-57.457-57.48h57.457V344.839z
		"/>
	<path fill="none" stroke="#000000" stroke-width="0.15" d="M114.94,344.839c31.729,0,57.457,25.707,57.457,57.451H114.94V344.839z"
		/>
	<path fill="none" stroke="#000000" stroke-width="0.15" d="M402.29,402.291c-31.743,0-57.472-25.723-57.472-57.451h57.472V402.291z
		"/>
	<path fill="none" stroke="#000000" stroke-width="0.15" d="M229.878,172.397c-31.744,0-57.481-25.708-57.481-57.451h57.481V172.397
		z"/>
	<path fill="none" stroke="#000000" stroke-width="0.15" d="M172.397,57.48c31.752,0,57.481,25.708,57.481,57.466h-57.481V57.48z"/>
	<path fill="none" stroke="#000000" stroke-width="0.15" d="M172.397,172.397c-31.729,0-57.457-25.708-57.457-57.451h57.457V172.397
		z"/>
	<path fill="none" stroke="#000000" stroke-width="0.15" d="M57.46,114.946c31.734,0,57.48,25.723,57.48,57.451H57.46V114.946z"/>
	<path fill="none" stroke="#000000" stroke-width="0.15" d="M57.46,172.397c-31.737,0-57.475-25.708-57.475-57.451H57.46V172.397z"
		/>
	<path fill="none" stroke="#000000" stroke-width="0.15" d="M-0.015,57.48c31.758,0,57.475,25.708,57.475,57.466H-0.015V57.48z"/>
	<path fill="none" stroke="#000000" stroke-width="0.15" d="M344.818,114.946c31.734,0,57.472,25.723,57.472,57.451h-57.472V114.946
		z"/>
	<path fill="none" stroke="#000000" stroke-width="0.15" d="M287.343,172.397c-31.743,0-57.465-25.708-57.465-57.451h57.465V172.397
		z"/>
	<path fill="none" stroke="#000000" stroke-width="0.15" d="M344.818,287.359c-31.737,0-57.475-25.723-57.475-57.481h57.475V287.359
		z"/>
	<path fill="none" stroke="#000000" stroke-width="0.15" d="M229.878,57.48c31.742,0,57.465,25.708,57.465,57.466h-57.465V57.48z"/>
	<path fill="none" stroke="#000000" stroke-width="0.15" d="M344.818,57.48c-31.737,0-57.475-25.752-57.475-57.48h57.475V57.48z"/>
	<path fill="none" stroke="#000000" stroke-width="0.15" d="M402.29,57.48c31.737,0,57.466,25.708,57.466,57.466H402.29V57.48z"/>
</g>
</svg>
