<?xml version="1.0" encoding="utf-8"?>
<!-- Generator: Adobe Illustrator 16.0.0, SVG Export Plug-In . SVG Version: 6.00 Build 0)  -->
<!DOCTYPE svg PUBLIC "-//W3C//DTD SVG 1.1//EN" "http://www.w3.org/Graphics/SVG/1.1/DTD/svg11.dtd">
<svg version="1.1" xmlns="http://www.w3.org/2000/svg" xmlns:xlink="http://www.w3.org/1999/xlink" x="0px" y="0px"
	 viewBox="0 0 490.422 429.117" enable-background="new 0 0 490.422 429.117"
	 xml:space="preserve">
<g id="Layer_1">
</g>
<g id="_x31__x5F_SHAPE">
	<path fill="none" stroke="#000000" stroke-width="0.15" d="M429.125,61.297c-33.852,0-61.297,27.453-61.297,61.312h61.297V61.297z"
		/>
	<path fill="none" stroke="#000000" stroke-width="0.15" d="M429.125,122.609c-33.852,0-61.297,27.43-61.297,61.289h61.297V122.609z
		"/>
	<path fill="none" stroke="#000000" stroke-width="0.15" d="M122.617,367.805c-33.859,0-61.305,27.438-61.305,61.312h61.305V367.805
		z"/>
	<path fill="none" stroke="#000000" stroke-width="0.15" d="M122.617,306.508c-33.859,0-61.305,27.453-61.305,61.297h61.305V306.508
		z"/>
	<path fill="none" stroke="#000000" stroke-width="0.15" d="M306.523,61.297c-33.852,0-61.305,27.453-61.305,61.312h61.305V61.297z"
		/>
	<path fill="none" stroke="#000000" stroke-width="0.15" d="M183.922,61.297h61.297c-33.852,0-61.297-27.438-61.297-61.297V61.297z"
		/>
	<path fill="none" stroke="#000000" stroke-width="0.15" d="M0.016,61.297h61.297C27.461,61.297,0.016,33.859,0.016,0V61.297z"/>
	<path fill="none" stroke="#000000" stroke-width="0.15" d="M367.828,306.508h61.297c-33.852,0-61.297-27.438-61.297-61.312V306.508
		z"/>
	<path fill="none" stroke="#000000" stroke-width="0.15" d="M122.617,183.898h61.305c-33.859,0-61.305-27.438-61.305-61.289V183.898
		z"/>
	<path fill="none" stroke="#000000" stroke-width="0.15" d="M245.219,245.195h61.305c-33.852,0-61.305-27.438-61.305-61.297V245.195
		z"/>
	<path fill="none" stroke="#000000" stroke-width="0.15" d="M183.922,61.297h-61.305c33.859,0,61.305-27.438,61.305-61.297V61.297z"
		/>
	<path fill="none" stroke="#000000" stroke-width="0.15" d="M429.125,429.117h-61.297c33.859,0,61.297-27.453,61.297-61.312V429.117
		z"/>
	<path fill="none" stroke="#000000" stroke-width="0.15" d="M367.828,367.805h-61.305c33.852,0,61.305-27.438,61.305-61.297V367.805
		z"/>
	<path fill="none" stroke="#000000" stroke-width="0.15" d="M61.312,0h61.305C88.758,0,61.312,27.445,61.312,61.297V0z"/>
	<path fill="none" stroke="#000000" stroke-width="0.15" d="M367.828,0h61.297c-33.852,0-61.297,27.445-61.297,61.297V0z"/>
	<path fill="none" stroke="#000000" stroke-width="0.15" d="M0.016,183.898h61.297c-33.852,0-61.297,27.453-61.297,61.297V183.898z"
		/>
	<path fill="none" stroke="#000000" stroke-width="0.15" d="M0.016,122.609h61.297c-33.852,0-61.297,27.43-61.297,61.289V122.609z"
		/>
	<path fill="none" stroke="#000000" stroke-width="0.15" d="M306.523,183.898h61.305c-33.859,0-61.305,27.453-61.305,61.297V183.898
		z"/>
	<path fill="none" stroke="#000000" stroke-width="0.15" d="M183.922,245.195h61.297c-33.852,0-61.297,27.453-61.297,61.312V245.195
		z"/>
	<path fill="none" stroke="#000000" stroke-width="0.15" d="M183.922,306.508h61.297c-33.852,0-61.297,27.453-61.297,61.297V306.508
		z"/>
	<path fill="none" stroke="#000000" stroke-width="0.15" d="M245.219,245.195h61.305c-33.852,0-61.305,27.453-61.305,61.312V245.195
		z"/>
	<path fill="none" stroke="#000000" stroke-width="0.15" d="M306.523,122.609h61.305c-33.859,0-61.305,27.43-61.305,61.289V122.609z
		"/>
	<path fill="none" stroke="#000000" stroke-width="0.15" d="M245.219,122.609h61.305c-33.852,0-61.305,27.43-61.305,61.289V122.609z
		"/>
	<path fill="none" stroke="#000000" stroke-width="0.15" d="M429.125,306.508h61.305c-33.852,0-61.305,27.453-61.305,61.297V306.508
		z"/>
	<path fill="none" stroke="#000000" stroke-width="0.15" d="M429.125,61.297c33.859,0,61.305-27.438,61.305-61.297h-61.305V61.297z"
		/>
	<path fill="none" stroke="#000000" stroke-width="0.15" d="M183.922,183.898c33.852,0,61.297-27.438,61.297-61.289h-61.297V183.898
		z"/>
	<path fill="none" stroke="#000000" stroke-width="0.15" d="M245.219,0h61.305c-33.852,0-61.305,27.445-61.305,61.297V0z"/>
	<path fill="none" stroke="#000000" stroke-width="0.15" d="M61.312,245.195h61.305c-33.859,0-61.305,27.453-61.305,61.312V245.195z
		"/>
	<path fill="none" stroke="#000000" stroke-width="0.15" d="M0.016,306.508h61.297c-33.852,0-61.297,27.453-61.297,61.297V306.508z"
		/>
	<path fill="none" stroke="#000000" stroke-width="0.15" d="M122.617,183.898h61.305c-33.859,0-61.305,27.453-61.305,61.297V183.898
		z"/>
	<path fill="none" stroke="#000000" stroke-width="0.15" d="M122.617,306.508h61.305c-33.859,0-61.305,27.453-61.305,61.297V306.508
		z"/>
	<path fill="none" stroke="#000000" stroke-width="0.15" d="M429.125,367.805h61.305c-33.852,0-61.305,27.438-61.305,61.312V367.805
		z"/>
	<path fill="none" stroke="#000000" stroke-width="0.15" d="M367.828,306.508c33.859,0,61.297,27.453,61.297,61.297h-61.297V306.508
		z"/>
	<path fill="none" stroke="#000000" stroke-width="0.15" d="M306.523,367.805c33.852,0,61.305,27.438,61.305,61.312h-61.305V367.805
		z"/>
	<path fill="none" stroke="#000000" stroke-width="0.15" d="M122.617,245.195c33.859,0,61.305,27.453,61.305,61.312h-61.305V245.195
		z"/>
	<path fill="none" stroke="#000000" stroke-width="0.15" d="M61.312,61.297c33.859,0,61.305,27.453,61.305,61.312H61.312V61.297z"/>
	<path fill="none" stroke="#000000" stroke-width="0.15" d="M429.125,245.195c33.859,0,61.305,27.453,61.305,61.312h-61.305V245.195
		z"/>
	<path fill="none" stroke="#000000" stroke-width="0.15" d="M429.125,122.609c33.859,0,61.305,27.43,61.305,61.289h-61.305V122.609z
		"/>
	<path fill="none" stroke="#000000" stroke-width="0.15" d="M306.523,0c33.852,0,61.305,27.445,61.305,61.297h-61.305V0z"/>
	<path fill="none" stroke="#000000" stroke-width="0.15" d="M367.828,183.898c33.859,0,61.297,27.453,61.297,61.297h-61.297V183.898
		z"/>
	<path fill="none" stroke="#000000" stroke-width="0.15" d="M245.219,367.805c33.859,0,61.305,27.438,61.305,61.312h-61.305V367.805
		z"/>
	<path fill="none" stroke="#000000" stroke-width="0.15" d="M122.617,367.805c33.859,0,61.305,27.438,61.305,61.312h-61.305V367.805
		z"/>
	<path fill="none" stroke="#000000" stroke-width="0.15" d="M306.523,367.805c-33.852,0-61.305-27.438-61.305-61.297h61.305V367.805
		z"/>
	<path fill="none" stroke="#000000" stroke-width="0.15" d="M0.016,61.297c33.852,0,61.297,27.453,61.297,61.312H0.016V61.297z"/>
	<path fill="none" stroke="#000000" stroke-width="0.15" d="M122.617,245.195c-33.859,0-61.305-27.438-61.305-61.297h61.305V245.195
		z"/>
	<path fill="none" stroke="#000000" stroke-width="0.15" d="M183.922,61.297c33.852,0,61.297,27.453,61.297,61.312h-61.297V61.297z"
		/>
	<path fill="none" stroke="#000000" stroke-width="0.15" d="M183.922,122.609c-33.859,0-61.305-27.453-61.305-61.312h61.305V122.609
		z"/>
	<path fill="none" stroke="#000000" stroke-width="0.15" d="M367.828,122.609c-33.859,0-61.305-27.453-61.305-61.312h61.305V122.609
		z"/>
	<path fill="none" stroke="#000000" stroke-width="0.15" d="M490.43,245.195c-33.852,0-61.305-27.438-61.305-61.297h61.305V245.195z
		"/>
	<path fill="none" stroke="#000000" stroke-width="0.15" d="M429.125,61.297c33.859,0,61.305,27.453,61.305,61.312h-61.305V61.297z"
		/>
	<path fill="none" stroke="#000000" stroke-width="0.15" d="M245.219,0c-33.859,0-61.312,27.445-61.312,61.297h61.312V0z"/>
	<path fill="none" stroke="#000000" stroke-width="0.15" d="M245.219,122.609c-33.859,0-61.312,27.43-61.312,61.289h61.312V122.609z
		"/>
	<path fill="none" stroke="#000000" stroke-width="0.15" d="M61.305,122.609C27.453,122.609,0,150.039,0,183.898h61.305V122.609z"/>
	<path fill="none" stroke="#000000" stroke-width="0.15" d="M429.125,367.805c-33.859,0-61.305,27.438-61.305,61.312h61.305V367.805
		z"/>
	<path fill="none" stroke="#000000" stroke-width="0.15" d="M367.82,306.508c-33.852,0-61.305,27.453-61.305,61.297h61.305V306.508z
		"/>
	<path fill="none" stroke="#000000" stroke-width="0.15" d="M61.305,61.297h61.312C88.75,61.297,61.305,33.859,61.305,0V61.297z"/>
	<path fill="none" stroke="#000000" stroke-width="0.15" d="M0,367.805h61.305C27.453,367.805,0,340.367,0,306.508V367.805z"/>
	<path fill="none" stroke="#000000" stroke-width="0.15" d="M0,306.508h61.305C27.453,306.508,0,279.07,0,245.195V306.508z"/>
	<path fill="none" stroke="#000000" stroke-width="0.15" d="M61.305,122.609H0c33.875,0,61.305-27.453,61.305-61.312V122.609z"/>
	<path fill="none" stroke="#000000" stroke-width="0.15" d="M245.219,367.805h61.297c-33.859,0-61.297,27.438-61.297,61.312V367.805
		z"/>
	<path fill="none" stroke="#000000" stroke-width="0.15" d="M306.516,245.195h61.305c-33.852,0-61.305,27.453-61.305,61.312V245.195
		z"/>
	<path fill="none" stroke="#000000" stroke-width="0.15" d="M245.219,245.195h61.297c-33.859,0-61.297,27.453-61.297,61.312V245.195
		z"/>
	<path fill="none" stroke="#000000" stroke-width="0.15" d="M245.219,306.508h61.297c-33.859,0-61.297,27.453-61.297,61.297V306.508
		z"/>
	<path fill="none" stroke="#000000" stroke-width="0.15" d="M367.82,122.609h61.305c-33.859,0-61.305,27.43-61.305,61.289V122.609z"
		/>
	<path fill="none" stroke="#000000" stroke-width="0.15" d="M245.219,61.297h61.297c-33.859,0-61.297,27.453-61.297,61.312V61.297z"
		/>
	<path fill="none" stroke="#000000" stroke-width="0.15" d="M429.125,61.297h61.297c-33.859,0-61.297,27.453-61.297,61.312V61.297z"
		/>
	<path fill="none" stroke="#000000" stroke-width="0.15" d="M306.516,61.297c33.859,0,61.305-27.438,61.305-61.297h-61.305V61.297z"
		/>
	<path fill="none" stroke="#000000" stroke-width="0.15" d="M61.305,429.117c33.852,0,61.312-27.453,61.312-61.312H61.305V429.117z"
		/>
	<path fill="none" stroke="#000000" stroke-width="0.15" d="M122.617,183.898c33.844,0,61.289-27.438,61.289-61.289h-61.289V183.898
		z"/>
	<path fill="none" stroke="#000000" stroke-width="0.15" d="M122.617,122.609c33.844,0,61.289-27.453,61.289-61.312h-61.289V122.609
		z"/>
	<path fill="none" stroke="#000000" stroke-width="0.15" d="M367.82,367.805c33.852,0,61.305-27.438,61.305-61.297H367.82V367.805z"
		/>
	<path fill="none" stroke="#000000" stroke-width="0.15" d="M429.125,245.195c33.852,0,61.297-27.438,61.297-61.297h-61.297V245.195
		z"/>
	<path fill="none" stroke="#000000" stroke-width="0.15" d="M245.219,245.195c33.859,0,61.297-27.438,61.297-61.297h-61.297V245.195
		z"/>
	<path fill="none" stroke="#000000" stroke-width="0.15" d="M367.82,306.508c33.852,0,61.305-27.438,61.305-61.312H367.82V306.508z"
		/>
	<path fill="none" stroke="#000000" stroke-width="0.15" d="M183.906,61.297h61.312c-33.859,0-61.312,27.453-61.312,61.312V61.297z"
		/>
	<path fill="none" stroke="#000000" stroke-width="0.15" d="M61.305,183.898h61.312c-33.867,0-61.312,27.453-61.312,61.297V183.898z
		"/>
	<path fill="none" stroke="#000000" stroke-width="0.15" d="M122.617,183.898h61.289c-33.844,0-61.289,27.453-61.289,61.297V183.898
		z"/>
	<path fill="none" stroke="#000000" stroke-width="0.15" d="M306.516,183.898h61.305c-33.852,0-61.305,27.453-61.305,61.297V183.898
		z"/>
	<path fill="none" stroke="#000000" stroke-width="0.15" d="M367.82,61.297h61.305c-33.859,0-61.305,27.453-61.305,61.312V61.297z"
		/>
	<path fill="none" stroke="#000000" stroke-width="0.15" d="M306.516,122.609h61.305c-33.852,0-61.305,27.43-61.305,61.289V122.609z
		"/>
	<path fill="none" stroke="#000000" stroke-width="0.15" d="M245.219,0c33.859,0,61.297,27.445,61.297,61.297h-61.297V0z"/>
	<path fill="none" stroke="#000000" stroke-width="0.15" d="M122.617,0c33.844,0,61.289,27.445,61.289,61.297h-61.289V0z"/>
	<path fill="none" stroke="#000000" stroke-width="0.15" d="M0,0c33.875,0,61.305,27.445,61.305,61.297H0V0z"/>
	<path fill="none" stroke="#000000" stroke-width="0.15" d="M61.305,245.195c33.852,0,61.312,27.453,61.312,61.312H61.305V245.195z"
		/>
	<path fill="none" stroke="#000000" stroke-width="0.15" d="M61.305,122.609c33.852,0,61.312,27.43,61.312,61.289H61.305V122.609z"
		/>
	<path fill="none" stroke="#000000" stroke-width="0.15" d="M429.125,245.195c33.852,0,61.297,27.453,61.297,61.312h-61.297V245.195
		z"/>
	<path fill="none" stroke="#000000" stroke-width="0.15" d="M490.422,61.297c-33.859,0-61.297-27.438-61.297-61.297h61.297V61.297z"
		/>
	<path fill="none" stroke="#000000" stroke-width="0.15" d="M183.906,367.805c33.867,0,61.312,27.438,61.312,61.312h-61.312V367.805
		z"/>
	<path fill="none" stroke="#000000" stroke-width="0.15" d="M245.219,245.195c-33.859,0-61.312-27.438-61.312-61.297h61.312V245.195
		z"/>
	<path fill="none" stroke="#000000" stroke-width="0.15" d="M122.617,367.805c33.844,0,61.289,27.438,61.289,61.312h-61.289V367.805
		z"/>
	<path fill="none" stroke="#000000" stroke-width="0.15" d="M0,367.805c33.875,0,61.305,27.438,61.305,61.312H0V367.805z"/>
	<path fill="none" stroke="#000000" stroke-width="0.15" d="M0,183.898c33.875,0,61.305,27.453,61.305,61.297H0V183.898z"/>
	<path fill="none" stroke="#000000" stroke-width="0.15" d="M183.906,306.508c-33.844,0-61.289-27.438-61.289-61.312h61.289V306.508
		z"/>
	<path fill="none" stroke="#000000" stroke-width="0.15" d="M122.617,306.508c33.844,0,61.289,27.453,61.289,61.297h-61.289V306.508
		z"/>
	<path fill="none" stroke="#000000" stroke-width="0.15" d="M61.305,61.297c33.852,0,61.312,27.453,61.312,61.312H61.305V61.297z"/>
	<path fill="none" stroke="#000000" stroke-width="0.15" d="M367.82,429.117c-33.852,0-61.305-27.453-61.305-61.312h61.305V429.117z
		"/>
	<path fill="none" stroke="#000000" stroke-width="0.15" d="M429.125,245.195c-33.859,0-61.305-27.438-61.305-61.297h61.305V245.195
		z"/>
	<path fill="none" stroke="#000000" stroke-width="0.15" d="M490.422,183.898c-33.859,0-61.297-27.438-61.297-61.289h61.297V183.898
		z"/>
	<path fill="none" stroke="#000000" stroke-width="0.15" d="M306.516,183.898c-33.859,0-61.297-27.438-61.297-61.289h61.297V183.898
		z"/>
	<path fill="none" stroke="#000000" stroke-width="0.15" d="M429.125,306.508c33.852,0,61.297,27.453,61.297,61.297h-61.297V306.508
		z"/>
	<path fill="none" stroke="#000000" stroke-width="0.15" d="M490.422,0c-33.844,0-61.281,27.445-61.281,61.297h61.281V0z"/>
	<path fill="none" stroke="#000000" stroke-width="0.15" d="M61.312,0C27.469,0,0.016,27.445,0.016,61.297h61.297V0z"/>
	<path fill="none" stroke="#000000" stroke-width="0.15" d="M245.219,367.805c-33.844,0-61.297,27.438-61.297,61.312h61.297V367.805
		z"/>
	<path fill="none" stroke="#000000" stroke-width="0.15" d="M367.828,367.805c-33.844,0-61.297,27.438-61.297,61.312h61.297V367.805
		z"/>
	<path fill="none" stroke="#000000" stroke-width="0.15" d="M429.141,122.609c-33.875,0-61.312,27.43-61.312,61.289h61.312V122.609z
		"/>
	<path fill="none" stroke="#000000" stroke-width="0.15" d="M183.922,183.898c-33.859,0-61.297,27.453-61.297,61.297h61.297V183.898
		z"/>
	<path fill="none" stroke="#000000" stroke-width="0.15" d="M306.531,306.508c-33.859,0-61.312,27.453-61.312,61.297h61.312V306.508
		z"/>
	<path fill="none" stroke="#000000" stroke-width="0.15" d="M490.422,122.609c-33.844,0-61.281,27.43-61.281,61.289h61.281V122.609z
		"/>
	<path fill="none" stroke="#000000" stroke-width="0.15" d="M0.016,306.508h61.297c-33.844,0-61.297-27.438-61.297-61.312V306.508z"
		/>
	<path fill="none" stroke="#000000" stroke-width="0.15" d="M367.828,367.805h61.312c-33.875,0-61.312-27.438-61.312-61.297V367.805
		z"/>
	<path fill="none" stroke="#000000" stroke-width="0.15" d="M245.219,122.609h61.312c-33.859,0-61.312-27.453-61.312-61.312V122.609
		z"/>
	<path fill="none" stroke="#000000" stroke-width="0.15" d="M429.141,122.609h61.281c-33.844,0-61.281-27.453-61.281-61.312V122.609
		z"/>
	<path fill="none" stroke="#000000" stroke-width="0.15" d="M429.141,61.297h-61.312c33.859,0,61.312-27.438,61.312-61.297V61.297z"
		/>
	<path fill="none" stroke="#000000" stroke-width="0.15" d="M61.312,245.195H0.016c33.859,0,61.297-27.438,61.297-61.297V245.195z"
		/>
	<path fill="none" stroke="#000000" stroke-width="0.15" d="M245.219,367.805h-61.297c33.859,0,61.297-27.438,61.297-61.297V367.805
		z"/>
	<path fill="none" stroke="#000000" stroke-width="0.15" d="M367.828,245.195h-61.297c33.844,0,61.297-27.438,61.297-61.297V245.195
		z"/>
	<path fill="none" stroke="#000000" stroke-width="0.15" d="M367.828,183.898h-61.297c33.844,0,61.297-27.438,61.297-61.289V183.898
		z"/>
	<path fill="none" stroke="#000000" stroke-width="0.15" d="M367.828,306.508h-61.297c33.844,0,61.297-27.438,61.297-61.312V306.508
		z"/>
	<path fill="none" stroke="#000000" stroke-width="0.15" d="M183.922,306.508h-61.297c33.844,0,61.297-27.438,61.297-61.312V306.508
		z"/>
	<path fill="none" stroke="#000000" stroke-width="0.15" d="M183.922,0h61.297c-33.844,0-61.297,27.445-61.297,61.297V0z"/>
	<path fill="none" stroke="#000000" stroke-width="0.15" d="M245.219,183.898h61.312c-33.859,0-61.312,27.453-61.312,61.297V183.898
		z"/>
	<path fill="none" stroke="#000000" stroke-width="0.15" d="M122.625,122.609h61.297c-33.859,0-61.297,27.43-61.297,61.289V122.609z
		"/>
	<path fill="none" stroke="#000000" stroke-width="0.15" d="M306.531,122.609c33.844,0,61.297-27.453,61.297-61.312h-61.297V122.609
		z"/>
	<path fill="none" stroke="#000000" stroke-width="0.15" d="M183.922,245.195c33.859,0,61.297-27.438,61.297-61.297h-61.297V245.195
		z"/>
	<path fill="none" stroke="#000000" stroke-width="0.15" d="M183.922,306.508c33.859,0,61.297-27.438,61.297-61.312h-61.297V306.508
		z"/>
	<path fill="none" stroke="#000000" stroke-width="0.15" d="M61.312,306.508c33.859,0,61.312-27.438,61.312-61.312H61.312V306.508z"
		/>
	<path fill="none" stroke="#000000" stroke-width="0.15" d="M61.312,122.609c33.859,0,61.312-27.453,61.312-61.312H61.312V122.609z"
		/>
	<path fill="none" stroke="#000000" stroke-width="0.15" d="M429.141,245.195c33.844,0,61.281-27.438,61.281-61.297h-61.281V245.195
		z"/>
	<path fill="none" stroke="#000000" stroke-width="0.15" d="M61.312,0h61.312C88.75,0,61.312,27.445,61.312,61.297V0z"/>
	<path fill="none" stroke="#000000" stroke-width="0.15" d="M367.828,183.898h61.312c-33.875,0-61.312,27.453-61.312,61.297V183.898
		z"/>
	<path fill="none" stroke="#000000" stroke-width="0.15" d="M306.531,306.508h61.297c-33.844,0-61.297,27.453-61.297,61.297V306.508
		z"/>
	<path fill="none" stroke="#000000" stroke-width="0.15" d="M245.219,122.609h61.312c-33.859,0-61.312,27.43-61.312,61.289V122.609z
		"/>
	<path fill="none" stroke="#000000" stroke-width="0.15" d="M122.625,0c33.844,0,61.297,27.445,61.297,61.297h-61.297V0z"/>
	<path fill="none" stroke="#000000" stroke-width="0.15" d="M429.141,367.805c33.844,0,61.281,27.438,61.281,61.312h-61.281V367.805
		z"/>
	<path fill="none" stroke="#000000" stroke-width="0.15" d="M61.312,306.508c33.859,0,61.312,27.453,61.312,61.297H61.312V306.508z"
		/>
	<path fill="none" stroke="#000000" stroke-width="0.15" d="M122.625,306.508c33.844,0,61.297,27.453,61.297,61.297h-61.297V306.508
		z"/>
	<path fill="none" stroke="#000000" stroke-width="0.15" d="M245.219,245.195c33.859,0,61.312,27.453,61.312,61.312h-61.312V245.195
		z"/>
	<path fill="none" stroke="#000000" stroke-width="0.15" d="M183.922,122.609c33.859,0,61.297,27.43,61.297,61.289h-61.297V122.609z
		"/>
	<path fill="none" stroke="#000000" stroke-width="0.15" d="M367.828,245.195c33.859,0,61.312,27.453,61.312,61.312h-61.312V245.195
		z"/>
	<path fill="none" stroke="#000000" stroke-width="0.15" d="M245.219,0c33.859,0,61.312,27.445,61.312,61.297h-61.312V0z"/>
	<path fill="none" stroke="#000000" stroke-width="0.15" d="M306.531,0c33.844,0,61.297,27.445,61.297,61.297h-61.297V0z"/>
	<path fill="none" stroke="#000000" stroke-width="0.15" d="M61.312,429.117c-33.844,0-61.297-27.453-61.297-61.312h61.297V429.117z
		"/>
	<path fill="none" stroke="#000000" stroke-width="0.15" d="M0.016,306.508c33.859,0,61.297,27.453,61.297,61.297H0.016V306.508z"/>
	<path fill="none" stroke="#000000" stroke-width="0.15" d="M61.312,122.609c-33.844,0-61.297-27.453-61.297-61.312h61.297V122.609z
		"/>
	<path fill="none" stroke="#000000" stroke-width="0.15" d="M367.828,367.805c33.859,0,61.312,27.438,61.312,61.312h-61.312V367.805
		z"/>
	<path fill="none" stroke="#000000" stroke-width="0.15" d="M122.625,367.805c33.844,0,61.297,27.438,61.297,61.312h-61.297V367.805
		z"/>
	<path fill="none" stroke="#000000" stroke-width="0.15" d="M61.312,367.805c33.859,0,61.312,27.438,61.312,61.312H61.312V367.805z"
		/>
	<path fill="none" stroke="#000000" stroke-width="0.15" d="M183.922,61.297c33.859,0,61.297,27.453,61.297,61.312h-61.297V61.297z"
		/>
	<path fill="none" stroke="#000000" stroke-width="0.15" d="M122.625,61.297c33.844,0,61.297,27.453,61.297,61.312h-61.297V61.297z"
		/>
	<path fill="none" stroke="#000000" stroke-width="0.15" d="M429.141,306.508c33.844,0,61.281,27.453,61.281,61.297h-61.281V306.508
		z"/>
	<path fill="none" stroke="#000000" stroke-width="0.15" d="M122.609,367.812c-33.844,0-61.297,27.422-61.297,61.281h61.297V367.812
		z"/>
	<path fill="none" stroke="#000000" stroke-width="0.15" d="M122.609,183.883c-33.844,0-61.297,27.469-61.297,61.312h61.297V183.883
		z"/>
	<path fill="none" stroke="#000000" stroke-width="0.15" d="M61.312,122.602c-33.859,0-61.297,27.438-61.297,61.281h61.297V122.602z
		"/>
	<path fill="none" stroke="#000000" stroke-width="0.15" d="M61.312-0.008c-33.859,0-61.297,27.438-61.297,61.312h61.297V-0.008z"/>
	<path fill="none" stroke="#000000" stroke-width="0.15" d="M429.125,61.305c-33.844,0-61.297,27.422-61.297,61.297h61.297V61.305z"
		/>
	<path fill="none" stroke="#000000" stroke-width="0.15" d="M306.531,367.812h61.297c-33.859,0-61.297-27.461-61.297-61.305V367.812
		z"/>
	<path fill="none" stroke="#000000" stroke-width="0.15" d="M183.922,367.812h61.297c-33.859,0-61.297-27.461-61.297-61.305V367.812
		z"/>
	<path fill="none" stroke="#000000" stroke-width="0.15" d="M429.125,122.602h61.312c-33.859,0-61.312-27.453-61.312-61.297V122.602
		z"/>
	<path fill="none" stroke="#000000" stroke-width="0.15" d="M122.609,367.812H61.312c33.859,0,61.297-27.461,61.297-61.305V367.812z
		"/>
	<path fill="none" stroke="#000000" stroke-width="0.15" d="M122.609,122.602H61.312c33.859,0,61.297-27.453,61.297-61.297V122.602z
		"/>
	<path fill="none" stroke="#000000" stroke-width="0.15" d="M429.125,245.195h-61.297c33.859,0,61.297-27.438,61.297-61.312V245.195
		z"/>
	<path fill="none" stroke="#000000" stroke-width="0.15" d="M429.125,183.883h-61.297c33.859,0,61.297-27.422,61.297-61.281V183.883
		z"/>
	<path fill="none" stroke="#000000" stroke-width="0.15" d="M245.219,183.883h-61.297c33.844,0,61.297-27.422,61.297-61.281V183.883
		z"/>
	<path fill="none" stroke="#000000" stroke-width="0.15" d="M306.531,245.195h-61.312c33.859,0,61.312-27.438,61.312-61.312V245.195
		z"/>
	<path fill="none" stroke="#000000" stroke-width="0.15" d="M306.531,306.508h-61.312c33.859,0,61.312-27.438,61.312-61.312V306.508
		z"/>
	<path fill="none" stroke="#000000" stroke-width="0.15" d="M183.922,306.508h-61.312c33.859,0,61.312-27.438,61.312-61.312V306.508
		z"/>
	<path fill="none" stroke="#000000" stroke-width="0.15" d="M367.828,61.305h-61.297c33.844,0,61.297-27.469,61.297-61.312V61.305z"
		/>
	<path fill="none" stroke="#000000" stroke-width="0.15" d="M367.828,122.602h-61.297c33.844,0,61.297-27.453,61.297-61.297V122.602
		z"/>
	<path fill="none" stroke="#000000" stroke-width="0.15" d="M490.438,183.883h-61.312c33.859,0,61.312-27.422,61.312-61.281V183.883
		z"/>
	<path fill="none" stroke="#000000" stroke-width="0.15" d="M490.438,61.305h-61.312c33.859,0,61.312-27.469,61.312-61.312V61.305z"
		/>
	<path fill="none" stroke="#000000" stroke-width="0.15" d="M429.125,306.508h61.312c-33.859,0-61.312,27.438-61.312,61.305V306.508
		z"/>
	<path fill="none" stroke="#000000" stroke-width="0.15" d="M0.016,306.508h61.297c-33.859,0-61.297,27.438-61.297,61.305V306.508z"
		/>
	<path fill="none" stroke="#000000" stroke-width="0.15" d="M0.016,367.812h61.297c-33.859,0-61.297,27.422-61.297,61.281V367.812z"
		/>
	<path fill="none" stroke="#000000" stroke-width="0.15" d="M429.125,183.883h61.312c-33.859,0-61.312,27.469-61.312,61.312V183.883
		z"/>
	<path fill="none" stroke="#000000" stroke-width="0.15" d="M183.922,245.195h61.297c-33.859,0-61.297,27.453-61.297,61.312V245.195
		z"/>
	<path fill="none" stroke="#000000" stroke-width="0.15" d="M245.219,429.094c33.859,0,61.312-27.438,61.312-61.281h-61.312V429.094
		z"/>
	<path fill="none" stroke="#000000" stroke-width="0.15" d="M61.312,61.305c33.859,0,61.297-27.469,61.297-61.312H61.312V61.305z"/>
	<path fill="none" stroke="#000000" stroke-width="0.15" d="M306.531,306.508c33.844,0,61.297-27.438,61.297-61.312h-61.297V306.508
		z"/>
	<path fill="none" stroke="#000000" stroke-width="0.15" d="M367.828,367.812h61.297c-33.844,0-61.297,27.422-61.297,61.281V367.812
		z"/>
	<path fill="none" stroke="#000000" stroke-width="0.15" d="M0.016,245.195h61.297c-33.859,0-61.297,27.453-61.297,61.312V245.195z"
		/>
	<path fill="none" stroke="#000000" stroke-width="0.15" d="M0.016,183.883h61.297c-33.859,0-61.297,27.469-61.297,61.312V183.883z"
		/>
	<path fill="none" stroke="#000000" stroke-width="0.15" d="M429.125,245.195h61.312c-33.859,0-61.312,27.453-61.312,61.312V245.195
		z"/>
	<path fill="none" stroke="#000000" stroke-width="0.15" d="M367.828-0.008h61.297c-33.844,0-61.297,27.438-61.297,61.312V-0.008z"
		/>
	<path fill="none" stroke="#000000" stroke-width="0.15" d="M122.609,122.602h61.312c-33.859,0-61.312,27.438-61.312,61.281V122.602
		z"/>
	<path fill="none" stroke="#000000" stroke-width="0.15" d="M429.125,367.812c33.859,0,61.312,27.422,61.312,61.281h-61.312V367.812
		z"/>
	<path fill="none" stroke="#000000" stroke-width="0.15" d="M367.828,245.195c33.859,0,61.297,27.453,61.297,61.312h-61.297V245.195
		z"/>
	<path fill="none" stroke="#000000" stroke-width="0.15" d="M306.531,122.602c33.844,0,61.297,27.438,61.297,61.281h-61.297V122.602
		z"/>
	<path fill="none" stroke="#000000" stroke-width="0.15" d="M122.609,183.883c33.859,0,61.312,27.469,61.312,61.312h-61.312V183.883
		z"/>
	<path fill="none" stroke="#000000" stroke-width="0.15" d="M183.922,61.305c33.844,0,61.297,27.422,61.297,61.297h-61.297V61.305z"
		/>
	<path fill="none" stroke="#000000" stroke-width="0.15" d="M183.922-0.008c33.844,0,61.297,27.438,61.297,61.312h-61.297V-0.008z"
		/>
	<path fill="none" stroke="#000000" stroke-width="0.15" d="M122.609-0.008c33.859,0,61.312,27.438,61.312,61.312h-61.312V-0.008z"
		/>
	<path fill="none" stroke="#000000" stroke-width="0.15" d="M245.219,306.508c33.859,0,61.312,27.438,61.312,61.305h-61.312V306.508
		z"/>
	<path fill="none" stroke="#000000" stroke-width="0.15" d="M245.219,429.094c-33.859,0-61.297-27.438-61.297-61.281h61.297V429.094
		z"/>
	<path fill="none" stroke="#000000" stroke-width="0.15" d="M306.531,367.812c33.844,0,61.297,27.422,61.297,61.281h-61.297V367.812
		z"/>
	<path fill="none" stroke="#000000" stroke-width="0.15" d="M61.312,245.195c33.859,0,61.297,27.453,61.297,61.312H61.312V245.195z"
		/>
	<path fill="none" stroke="#000000" stroke-width="0.15" d="M61.312,122.602c-33.859,0-61.297-27.453-61.297-61.297h61.297V122.602z
		"/>
	<path fill="none" stroke="#000000" stroke-width="0.15" d="M306.531,183.883c-33.859,0-61.312-27.422-61.312-61.281h61.312V183.883
		z"/>
	<path fill="none" stroke="#000000" stroke-width="0.15" d="M183.922,183.883c33.844,0,61.297,27.469,61.297,61.312h-61.297V183.883
		z"/>
	<path fill="none" stroke="#000000" stroke-width="0.15" d="M306.531,183.883c33.844,0,61.297,27.469,61.297,61.312h-61.297V183.883
		z"/>
	<path fill="none" stroke="#000000" stroke-width="0.15" d="M245.219,61.305c33.859,0,61.312,27.422,61.312,61.297h-61.312V61.305z"
		/>
	<path fill="none" stroke="#000000" stroke-width="0.15" d="M183.922,122.602c-33.859,0-61.312-27.453-61.312-61.297h61.312V122.602
		z"/>
</g>
</svg>
